<?xml version="1.0" encoding="UTF-8" standalone="no"?>
<svg
   viewBox="0 0 30 30"
   width="50px"
   height="50px"
   version="1.1"
   id="svg827"
   sodipodi:docname="icons8-github.svg"
   inkscape:version="1.1.2 (0a00cf5339, 2022-02-04)"
   xmlns:inkscape="http://www.inkscape.org/namespaces/inkscape"
   xmlns:sodipodi="http://sodipodi.sourceforge.net/DTD/sodipodi-0.dtd"
   xmlns="http://www.w3.org/2000/svg"
   xmlns:svg="http://www.w3.org/2000/svg">
  <defs
     id="defs831" />
  <sodipodi:namedview
     id="namedview829"
     pagecolor="#ffffff"
     bordercolor="#666666"
     borderopacity="1.0"
     inkscape:pageshadow="2"
     inkscape:pageopacity="0.0"
     inkscape:pagecheckerboard="0"
     showgrid="false"
     inkscape:zoom="15.34"
     inkscape:cx="24.576271"
     inkscape:cy="25"
     inkscape:window-width="1920"
     inkscape:window-height="994"
     inkscape:window-x="0"
     inkscape:window-y="29"
     inkscape:window-maximized="1"
     inkscape:current-layer="svg827" />
  <path
     d="M 15,1.8 C 7.7103,1.8 1.8,7.7103 1.8,15 1.8,21.1853 6.0592,26.3608 11.8012,27.793 11.7396,27.6148 11.7,27.408 11.7,27.1517 v -2.2561 c -0.5357,0 -1.4333,0 -1.6588,0 -0.9031,0 -1.7061,-0.3883 -2.0955,-1.1099 C 7.5134,22.9838 7.4386,21.7573 6.3672,21.0071 6.0493,20.7574 6.2913,20.4725 6.6576,20.511 c 0.6765,0.1914 1.2375,0.6556 1.7655,1.3442 0.5258,0.6897 0.7733,0.8459 1.7556,0.8459 0.4763,0 1.1891,-0.0275 1.8601,-0.1331 0.3608,-0.9163 0.9845,-1.76 1.7468,-2.1582 C 9.39,19.9577 7.2923,17.7709 7.2923,14.802 c 0,-1.2782 0.5445,-2.5146 1.4696,-3.5563 C 8.4583,10.2117 8.0766,8.103 8.8785,7.3 10.8563,7.3 12.052,8.5826 12.3391,8.9291 13.3247,8.5914 14.4071,8.4 15.5445,8.4 c 1.1396,0 2.2264,0.1914 3.2142,0.5313 C 19.0425,8.587 20.2393,7.3 22.2215,7.3 c 0.8052,0.8041 0.4191,2.9216 0.1122,3.9534 0.9196,1.0395 1.4608,2.2726 1.4608,3.5486 0,2.9667 -2.0944,5.1524 -6.4834,5.6067 C 18.5189,21.039 19.4,22.81 19.4,24.1443 v 3.0074 c 0,0.1144 -0.0253,0.1969 -0.0385,0.2948 C 24.5051,25.6436 28.2,20.7596 28.2,15 28.2,7.7103 22.2897,1.8 15,1.8 Z"
     id="path825"
     style="stroke-width:1.1" />
</svg>
