<?xml version="1.0" encoding="UTF-8" standalone="no"?>
<svg
   viewBox="0 0 50 50"
   width="50px"
   height="50px"
   version="1.1"
   id="svg1018"
   sodipodi:docname="icons8-twitter.svg"
   inkscape:version="1.1.2 (0a00cf5339, 2022-02-04)"
   xmlns:inkscape="http://www.inkscape.org/namespaces/inkscape"
   xmlns:sodipodi="http://sodipodi.sourceforge.net/DTD/sodipodi-0.dtd"
   xmlns="http://www.w3.org/2000/svg"
   xmlns:svg="http://www.w3.org/2000/svg">
  <defs
     id="defs1022" />
  <sodipodi:namedview
     id="namedview1020"
     pagecolor="#ffffff"
     bordercolor="#666666"
     borderopacity="1.0"
     inkscape:pageshadow="2"
     inkscape:pageopacity="0.0"
     inkscape:pagecheckerboard="0"
     showgrid="false"
     inkscape:zoom="15.34"
     inkscape:cx="24.576271"
     inkscape:cy="25"
     inkscape:window-width="1920"
     inkscape:window-height="994"
     inkscape:window-x="0"
     inkscape:window-y="29"
     inkscape:window-maximized="1"
     inkscape:current-layer="svg1018" />
  <path
     d="M25,2C12.317,2,2,12.317,2,25s10.317,23,23,23s23-10.317,23-23S37.683,2,25,2z M36.237,20.524 c0.01,0.236,0.016,0.476,0.016,0.717C36.253,28.559,30.68,37,20.491,37c-3.128,0-6.041-0.917-8.491-2.489 c0.433,0.052,0.872,0.077,1.321,0.077c2.596,0,4.985-0.884,6.879-2.37c-2.424-0.044-4.468-1.649-5.175-3.847 c0.339,0.065,0.686,0.1,1.044,0.1c0.505,0,0.995-0.067,1.458-0.195c-2.532-0.511-4.441-2.747-4.441-5.432c0-0.024,0-0.047,0-0.07 c0.747,0.415,1.6,0.665,2.509,0.694c-1.488-0.995-2.464-2.689-2.464-4.611c0-1.015,0.272-1.966,0.749-2.786 c2.733,3.351,6.815,5.556,11.418,5.788c-0.095-0.406-0.145-0.828-0.145-1.262c0-3.059,2.48-5.539,5.54-5.539 c1.593,0,3.032,0.672,4.042,1.749c1.261-0.248,2.448-0.709,3.518-1.343c-0.413,1.292-1.292,2.378-2.437,3.064 c1.122-0.136,2.188-0.432,3.183-0.873C38.257,18.766,37.318,19.743,36.237,20.524z"
     id="path1016"
     style="fill:#b88800;fill-opacity:1" />
</svg>
