<?xml version="1.0" encoding="UTF-8" standalone="no"?>
<!-- Created with Inkscape (http://www.inkscape.org/) -->

<svg
   width="500"
   height="159.946"
   viewBox="0 0 132.29167 42.319046"
   version="1.1"
   id="svg5"
   inkscape:version="1.1.2 (0a00cf5339, 2022-02-04)"
   sodipodi:docname="logo_onblack.svg"
   xmlns:inkscape="http://www.inkscape.org/namespaces/inkscape"
   xmlns:sodipodi="http://sodipodi.sourceforge.net/DTD/sodipodi-0.dtd"
   xmlns="http://www.w3.org/2000/svg"
   xmlns:svg="http://www.w3.org/2000/svg">
  <sodipodi:namedview
     id="namedview7"
     pagecolor="#ffffff"
     bordercolor="#666666"
     borderopacity="1.0"
     inkscape:pageshadow="2"
     inkscape:pageopacity="0.0"
     inkscape:pagecheckerboard="0"
     inkscape:document-units="px"
     showgrid="false"
     units="px"
     inkscape:zoom="1.0230034"
     inkscape:cx="177.90752"
     inkscape:cy="158.846"
     inkscape:window-width="1920"
     inkscape:window-height="994"
     inkscape:window-x="0"
     inkscape:window-y="29"
     inkscape:window-maximized="1"
     inkscape:current-layer="layer1"
     height="159.946px" />
  <defs
     id="defs2" />
  <g
     inkscape:label="Layer 1"
     inkscape:groupmode="layer"
     id="layer1">
    <g
       id="g20818"
       transform="matrix(0.74227265,0,0,0.74227265,-1527.5118,-73.575039)">
      <g
         id="g13276"
         transform="matrix(0.04500806,0,0,0.04500806,1920.3654,-193.14071)"
         style="fill:#ffffff;fill-opacity:1">
        <path
           style="color:#000000;fill:#ffffff;fill-opacity:1;stroke-width:70;stroke-linecap:round;stroke-linejoin:round;-inkscape-stroke:none"
           d="m 3513.0918,6528.5449 v 0.01 c -112.0928,1e-4 -219.5946,44.5288 -298.8561,123.7904 -79.2616,79.2615 -123.7903,186.7633 -123.7904,298.8561 0.1522,178.5887 112.5387,337.8073 280.7637,397.7597 -37.5164,28.3158 -59.5865,72.5832 -59.6211,119.586 -1e-4,82.8223 67.1406,149.963 149.9629,149.9629 8.5545,-0.029 17.0908,-0.7893 25.5156,-2.2735 -0.2709,-0.2747 -0.5339,-0.5741 -0.8027,-0.8554 20.056,17.1688 43.2138,30.3389 68.2226,38.7988 28.1039,44.2285 76.8498,71.0407 129.252,71.0937 84.6775,-1e-4 153.3221,-68.6447 153.3222,-153.3222 -0.035,-23.048 -5.2654,-45.7915 -15.3027,-66.5391 1.7138,-7.1868 3.0412,-14.4603 3.9766,-21.7891 v 0.041 c 35.2704,-12.9609 66.2714,-35.4195 89.5781,-64.8946 82.4757,-0.5133 149.0692,-67.509 149.0859,-149.9863 0,-82.8542 -67.1673,-150.0206 -150.0215,-150.0195 v 0 c -3.1327,0 -6.2644,0.1077 -9.3906,0.3086 l 15.0938,-53.8926 -0.3242,0.1778 c 10.5175,-37.1447 15.8963,-75.5553 15.9863,-114.1602 -1e-4,-112.0928 -44.5288,-219.5946 -123.7904,-298.8561 -79.2615,-79.2616 -186.7633,-123.7903 -298.8561,-123.7904 z m 312.4648,925.8809 c 0.5609,2.7183 0.9923,5.4012 1.2852,8.043 -0.2929,-2.6418 -0.7243,-5.3247 -1.2852,-8.043 z m 1.6211,11.9746 c -0.1991,4.4069 -0.5391,8.8063 -1.0195,13.1914 0.4804,-4.3851 0.8204,-8.7845 1.0195,-13.1914 z"
           id="path13272" />
        <path
           style="color:#000000;fill:#ffffff;fill-opacity:1;stroke-linecap:round;stroke-linejoin:round;-inkscape-stroke:none"
           d="m 3513.0957,6493.5508 1.1406,0.6191 c -0.6346,0.03 -1.2683,0.077 -1.9004,0.1406 l 0.7559,-0.7558 c -121.3618,1e-4 -237.7898,48.2252 -323.6055,134.041 -85.8158,85.8157 -134.0409,202.2437 -134.041,323.6055 v 0.029 c 0.1496,175.5256 100.661,333.9703 255.4942,410.1757 -22.0149,30.9298 -34.323,68.2656 -34.3516,107.1153 v 0.025 c -1e-4,101.7376 83.2253,184.963 184.9629,184.9629 0.04,1e-4 0.079,1e-4 0.1191,0 5.1944,-0.018 10.3823,-0.263 15.5528,-0.7168 16.8516,12.4343 35.2204,22.6784 54.7128,30.3769 35.2588,48.1725 91.5939,77.0427 151.7676,77.1035 h 0.035 c 103.5927,-1e-4 188.3221,-84.7295 188.3222,-188.3222 v -0.025 -0.027 c -0.034,-22.2835 -4.0815,-44.3173 -11.791,-65.125 27.1769,-13.2887 51.6707,-31.5175 72.0313,-53.9589 93.4824,-9.0997 167.0783,-88.3707 167.0976,-184.0235 v -0.01 c 0,-89.5076 -64.4194,-164.6302 -149.1757,-181.4473 l 3.5605,-12.7168 c 0.1356,-0.7643 0.2457,-1.533 0.3301,-2.3046 10.9143,-39.4214 16.5335,-80.1229 16.6289,-121.0352 0,-0.027 0,-0.055 0,-0.082 -1e-4,-121.3618 -48.2252,-237.7898 -134.041,-323.6055 -85.8157,-85.8158 -202.2437,-134.0409 -323.6055,-134.041 z"
           id="path13274"
           sodipodi:nodetypes="ccccssscssscccssscsccsscccscscc" />
      </g>
      <path
         id="path13278"
         style="fill:#ffd400;fill-opacity:1;stroke:none;stroke-width:0.360065;stroke-linecap:round;stroke-linejoin:round;stroke-miterlimit:4;stroke-dasharray:none;stroke-opacity:1"
         d="m 2078.4829,100.6967 a 19.02251,19.02251 0 0 0 -19.0225,19.0225 19.02251,19.02251 0 0 0 13.4247,18.17983 v 0 l 18.6525,5.74372 5.2634,-18.79369 -0.015,0.008 a 19.02251,19.02251 0 0 0 0.7196,-5.13813 19.02251,19.02251 0 0 0 -19.0225,-19.0225 z" />
      <path
         id="path13280"
         style="fill:#242424;fill-opacity:1;fill-rule:evenodd;stroke:none;stroke-width:0.794968;stroke-miterlimit:4;stroke-dasharray:none;stroke-opacity:1"
         d="m 2086.8995,107.73361 v 0 c -2.944,0.002 -5.7026,1.43751 -7.3923,3.84826 -0.5631,0.0646 -1.1212,0.1671 -1.6705,0.30663 -1.4747,-0.93533 -3.1849,-1.43202 -4.9312,-1.43209 -5.0852,0 -9.2075,4.12241 -9.2075,9.20759 0,3.49971 1.9866,6.69599 5.1232,8.24843 -0.1496,0.658 -0.2252,1.33071 -0.2253,2.0055 0,1.19469 0.2399,2.37721 0.7007,3.47941 -1.1043,0.0917 -2.1503,0.37261 -3.1094,0.80681 1.7469,1.48652 3.7371,2.65417 5.8963,3.42835 -1.6871,1.27456 -2.6683,3.25674 -2.6698,5.37116 -1e-4,3.72768 3.0218,6.74955 6.7495,6.74955 0.385,-0.002 0.7692,-0.0355 1.1484,-0.10234 -0.012,-0.0124 0.012,0.0133 0,0 0.9027,0.77274 1.9086,1.32648 3.0342,1.70723 1.2649,1.99064 3.4589,3.19741 5.8174,3.19979 3.8112,0 6.9007,-3.08956 6.9008,-6.90074 0,-1.03734 -0.237,-2.06097 -0.6888,-2.99478 0.075,-0.33862 0.1413,-0.69048 0.1788,-0.97885 1.5875,-0.58334 2.9828,-1.59416 4.0317,-2.92077 3.7121,-0.0231 6.7094,-3.03846 6.7101,-6.7506 0,-3.7291 -3.0231,-6.75213 -6.7522,-6.75208 v 0 c -0.141,0 -0.2819,0.005 -0.4226,0.0139 l 0.6793,-2.4256 -0.015,0.008 c 0.3541,-1.30475 0.5681,-2.64354 0.6384,-3.99368 -0.5209,0.065 -1.0363,0.17215 -1.5405,0.32324 -0.271,-0.1869 -0.5492,-0.36327 -0.8337,-0.52877 0.5804,-1.21509 0.8819,-2.54461 0.8823,-3.89125 0,-4.98876 -4.0442,-9.03292 -9.0329,-9.033 z"
         sodipodi:nodetypes="ccccccccccccccccccccccccccccccccc" />
      <path
         id="path13282"
         style="fill:#ffffff;fill-opacity:1;fill-rule:evenodd;stroke:none;stroke-width:0.568699;stroke-miterlimit:4;stroke-dasharray:none;stroke-opacity:1"
         d="m 2088.1975,117.92074 c -1.7223,0.005 -3.3713,0.69748 -4.5809,1.92347 -0.042,-0.002 -0.084,-0.002 -0.1267,-0.002 v 0 0 c -0.128,0 -0.2535,0.004 -0.3767,0.0119 l -0.011,0.002 -0.011,0.002 c -0.8306,0.0761 -1.6292,0.25512 -2.3844,0.5227 -0.7975,-0.33405 -1.6528,-0.50783 -2.5174,-0.51144 -3.6378,0 -6.5868,2.94902 -6.5868,6.58682 0.01,2.14016 1.0507,4.14413 2.8024,5.37372 0.1596,0.69542 0.3985,1.36914 0.7037,2.01297 0.015,0.77501 0.1743,1.53855 0.4591,2.2584 -0.055,0.0668 -0.11,0.13437 -0.1638,0.20253 -1.195,0.13706 -2.3486,0.5963 -3.3151,1.32767 0.2606,0.0982 0.5345,0.1814 0.6666,0.22477 l 1.4188,0.4383 c 0,0 0,0 0,0.002 l 1.5212,0.46846 c 0.4081,-0.8214 0.947,-1.5701 1.5923,-2.21868 l 0.4157,-0.36655 c 0.8379,-0.73873 1.8127,-1.3053 2.8692,-1.66785 l 0.4552,-0.15622 v 0 c 0.042,-0.0117 0.082,-0.0255 0.1246,-0.0366 0.1451,-0.0243 0.294,-0.0407 0.4505,-0.0435 v 0 0 c 0.8509,-0.0158 1.9413,0.30541 3.0845,0.85918 0.2736,0.13252 0.5502,0.27837 0.8272,0.43611 0.012,0.006 0.023,0.0131 0.034,0.0197 0.2762,0.15819 0.5527,0.32813 0.8271,0.50844 0.012,0.008 0.024,0.016 0.036,0.0239 0.2747,0.18154 0.5471,0.37332 0.8147,0.57412 0.01,0.008 0.02,0.0155 0.031,0.0231 0.2673,0.20147 0.5296,0.4118 0.7844,0.62959 0.01,0.005 0.012,0.01 0.017,0.0145 0.01,0.005 0.012,0.0105 0.018,0.0156 0.2377,0.20426 0.4682,0.41501 0.6905,0.63037 0.012,0.0114 0.023,0.0228 0.035,0.0342 0.2204,0.21485 0.4324,0.43409 0.6348,0.6557 0.012,0.0129 0.024,0.0257 0.035,0.0386 0.2001,0.22046 0.3904,0.44311 0.5701,0.66608 0.012,0.0146 0.024,0.0293 0.035,0.044 0.1761,0.22032 0.3412,0.44066 0.4947,0.65937 0.013,0.0181 0.025,0.0362 0.038,0.0542 0.1502,0.21633 0.2884,0.43063 0.4139,0.64136 0.011,0.0182 0.022,0.0364 0.032,0.0545 0.1229,0.20949 0.2324,0.41496 0.3282,0.61489 0.2135,0.44596 0.3578,0.864 0.4175,1.23307 v -0.002 c 1e-4,0 0,0 0,0 l 0.7156,-2.5549 c 0,0 0,0 0,0 v -0.0162 c -0.7911,-1.40247 -2.0354,-2.76339 -3.4388,-3.966 -2.3069,-1.97672 -5.0703,-3.5126 -7.5104,-3.46728 v 0 0 c 0,3e-5 0,0 0,0 -0.065,0.002 -0.1291,0.007 -0.1935,0.0112 0.9375,-3.18369 3.6586,-5.52953 6.955,-5.94933 0.012,-0.002 0.024,-0.003 0.037,-0.005 0.1015,-0.0124 0.2035,-0.023 0.3061,-0.0318 0.016,-0.002 0.032,-0.003 0.049,-0.004 0.101,-0.008 0.2025,-0.0146 0.3045,-0.019 0.015,0 0.031,-0.002 0.046,-0.002 0.1064,-0.004 0.2132,-0.007 0.3205,-0.007 h 0.011 c 0.1614,0 0.3222,0.006 0.4824,0.0158 0.018,0.002 0.037,0.002 0.055,0.003 1.2108,0.0825 2.3836,0.43752 3.4485,1.01646 -0.066,0.14806 -0.1437,0.29107 -0.1906,0.44692 -0.1544,0.51188 -0.2322,1.104 -0.2685,1.77113 -0.073,1.3343 0.035,2.96199 0.2671,4.5757 0.096,0.66317 0.213,1.32079 0.3487,1.95443 l 0.4825,-1.72305 0.5522,-1.97165 1.3191,-4.71037 0.1406,-0.50205 0.082,-0.29447 c -0.1468,0.0107 -0.2931,0.0261 -0.4388,0.0463 l -0.5994,-0.41738 c -0.2464,-0.17156 -0.5004,-0.32988 -0.7597,-0.47769 0.2212,-0.65854 0.3347,-1.34842 0.3362,-2.04311 1e-4,-3.56889 -2.8931,-6.46207 -6.462,-6.46209 z m -4.712,3.49629 v 0 0 c 1.3066,0.004 2.916,0.62697 4.3773,1.62301 0.8815,0.60081 1.6908,1.33828 2.3798,2.11476 -0.2827,-0.0243 -0.5668,-0.0379 -0.8521,-0.0379 -0.2621,0.002 -0.5278,-0.002 -0.7878,0.002 -2.389,0.19008 -4.5561,1.26408 -6.1805,2.8733 -1.4032,1.3648 -2.4078,3.14532 -2.8047,5.17162 -0.8307,0.32769 -1.6024,0.75949 -2.3017,1.27826 -1.0076,-1.39723 -1.5854,-3.06277 -1.5878,-4.79846 v -0.002 c 0,-4.27104 3.2453,-7.82339 7.4977,-8.21609 0.087,-0.005 0.1732,-0.008 0.2594,-0.008 z m 4.2971,20.33705 c -0.05,0 -0.099,-2e-5 -0.1493,0 -0.519,0.009 -1.0487,0.0783 -1.5762,0.2005 l 5.4799,1.68745 0.062,-0.2209 c -0.9833,-1.15747 -2.3519,-1.6587 -3.8163,-1.66777 z"
         sodipodi:nodetypes="ccscsccccccccccccccccsscccscssssssssssssssssssssssccccccsccsccssscsssssccssscccccccscccccssccccccsscccccccc" />
    </g>
    <g
       aria-label="MacDonell Group"
       id="text13288"
       style="font-weight:900;font-size:10.4743px;line-height:125%;font-family:'Public Sans';-inkscape-font-specification:'Public Sans Heavy';letter-spacing:0px;word-spacing:0px;fill:#ffffff;stroke-width:0.196393px">
      <path
         d="m 44.255512,18.399115 v -7.57292 h 3.027072 l 1.225493,4.619167 1.235968,-4.619167 h 3.016598 v 7.57292 h -2.042488 v -5.488534 l -1.476876,5.488534 h -1.466403 l -1.482113,-5.488534 v 5.488534 z"
         id="path3679" />
      <path
         d="m 55.682938,18.503858 q -0.508003,0 -0.93745,-0.199012 -0.424209,-0.199012 -0.680829,-0.581324 -0.251383,-0.387549 -0.251383,-0.947924 0,-0.879841 0.696541,-1.366896 0.701778,-0.487055 2.178654,-0.487055 h 0.418972 v -0.230435 q 0,-0.261857 -0.14664,-0.382312 -0.141403,-0.120454 -0.450395,-0.10998 -0.209486,0.0052 -0.460869,0.09951 -0.251383,0.09427 -0.377075,0.371838 h -1.649702 q 0.03142,-0.638933 0.382312,-1.031719 0.350889,-0.398023 0.926975,-0.576086 0.576087,-0.183301 1.272628,-0.183301 0.942687,0 1.476876,0.214723 0.534189,0.214724 0.75415,0.597036 0.21996,0.377074 0.21996,0.874604 v 3.833594 h -1.686362 l -0.178064,-0.858893 q -0.240908,0.549901 -0.597035,0.759387 -0.356126,0.204249 -0.911264,0.204249 z m 0.71749,-1.288339 q 0.14664,0 0.272332,-0.05237 0.130928,-0.05237 0.225197,-0.141403 0.09427,-0.09427 0.14664,-0.209486 0.05761,-0.115217 0.06285,-0.246146 V 15.885283 H 56.78274 q -0.162352,0 -0.413735,0.06285 -0.251383,0.05761 -0.450395,0.204249 -0.193775,0.14664 -0.193775,0.413735 0,0.303755 0.204249,0.476581 0.209486,0.172826 0.471344,0.172826 z"
         id="path3681" />
      <path
         d="m 62.569779,18.503858 q -0.775098,0 -1.393082,-0.350889 -0.617984,-0.35089 -0.979347,-0.979348 -0.356126,-0.628458 -0.356126,-1.455927 0,-0.837944 0.356126,-1.476877 0.356126,-0.638932 0.97411,-1.000295 0.617984,-0.361364 1.398319,-0.361364 0.764624,0 1.288339,0.324704 0.528952,0.324703 0.801284,0.853655 0.277569,0.528952 0.288043,1.136462 h -1.649702 q -0.02095,-0.151878 -0.08903,-0.340415 -0.06808,-0.188537 -0.214723,-0.324703 -0.14664,-0.141403 -0.408498,-0.141403 -0.392786,0 -0.633695,0.32994 -0.235672,0.324703 -0.235672,0.979347 0,0.665118 0.256621,1.036956 0.25662,0.3666 0.654644,0.3666 0.25662,0 0.398023,-0.151877 0.14664,-0.157115 0.209486,-0.345652 0.06808,-0.188537 0.08379,-0.298517 h 1.602568 q 0,0.576086 -0.282806,1.078852 -0.277569,0.502767 -0.801284,0.811759 -0.523715,0.308992 -1.26739,0.308992 z"
         id="path3683" />
      <path
         d="m 65.790611,18.399115 v -7.57292 q 0.08379,0 0.418972,0 0.335177,0 0.775098,0 0.445158,-0.0052 0.86413,0 0.418972,0 0.665118,0.01047 1.366896,0.04713 2.231026,0.534189 0.869367,0.487055 1.277864,1.314525 0.408498,0.827469 0.408498,1.901085 0,1.105039 -0.424209,1.969169 -0.424209,0.858892 -1.293576,1.351184 -0.869367,0.492293 -2.210078,0.492293 z m 2.037251,-1.602568 H 68.5663 q 0.387549,0 0.785573,-0.214724 0.40326,-0.21996 0.675592,-0.712252 0.277569,-0.492292 0.277569,-1.314525 0,-0.696541 -0.21996,-1.167884 -0.214723,-0.476581 -0.60751,-0.71749 -0.392786,-0.240909 -0.911264,-0.240909 h -0.738438 z"
         id="path3685" />
      <path
         d="m 75.934964,18.503858 q -0.837944,0 -1.455927,-0.356127 -0.612747,-0.356126 -0.953162,-0.979347 -0.335177,-0.628458 -0.335177,-1.440216 0,-0.853655 0.350889,-1.492588 0.356126,-0.644169 0.97411,-1.000295 0.623221,-0.356127 1.429742,-0.356127 0.848418,0 1.461165,0.371838 0.617983,0.3666 0.947924,1.01077 0.335177,0.644169 0.335177,1.466402 0,0.806521 -0.340414,1.434979 -0.335178,0.623221 -0.953162,0.984584 -0.617983,0.356127 -1.461165,0.356127 z m 0.01047,-1.476877 q 0.324703,0 0.487055,-0.21996 0.167588,-0.225198 0.21996,-0.544664 0.05761,-0.319466 0.05761,-0.607509 0,-0.293281 -0.05761,-0.597035 -0.05237,-0.308992 -0.21996,-0.513241 -0.162352,-0.209486 -0.487055,-0.209486 -0.329941,0 -0.49753,0.209486 -0.162351,0.204249 -0.21996,0.513241 -0.05761,0.303754 -0.05761,0.597035 0,0.288043 0.05761,0.607509 0.05761,0.319466 0.21996,0.544664 0.167589,0.21996 0.49753,0.21996 z"
         id="path3687" />
      <path
         d="m 79.52764,18.399115 v -5.415214 h 2.016303 v 0.748913 q 0.115217,-0.172826 0.293281,-0.350889 0.178063,-0.178063 0.460869,-0.298518 0.282806,-0.120454 0.707015,-0.120454 0.476581,0 0.906027,0.1833 0.434684,0.1833 0.707015,0.586561 0.277569,0.40326 0.277569,1.063141 v 3.60316 h -2.042488 v -3.325591 q 0,-0.267094 -0.199012,-0.408497 -0.199012,-0.141404 -0.429446,-0.141404 -0.146641,0 -0.303755,0.06285 -0.151877,0.06285 -0.25662,0.188538 -0.09951,0.120454 -0.09951,0.298517 v 3.325591 z"
         id="path3689" />
      <path
         d="m 88.55123,18.503858 q -0.843181,0 -1.487351,-0.340415 -0.638932,-0.345652 -0.995058,-0.963636 -0.356127,-0.617984 -0.356127,-1.440216 0,-0.775098 0.324704,-1.429742 0.32994,-0.654644 0.942687,-1.052667 0.617984,-0.398024 1.48735,-0.398024 0.885079,0 1.476877,0.366601 0.591798,0.3666 0.885078,1.005533 0.298518,0.633695 0.298518,1.434979 v 0.471343 h -3.414622 q -0.0052,0.324704 0.09951,0.528952 0.104743,0.204249 0.282806,0.298518 0.1833,0.09427 0.40326,0.09427 0.277569,0 0.49753,-0.104743 0.225197,-0.104743 0.350889,-0.418972 h 1.801579 q -0.08379,0.602272 -0.47658,1.042193 -0.392787,0.434683 -0.958399,0.670355 -0.560375,0.235672 -1.162647,0.235672 z m -0.848418,-3.487942 h 1.544959 q 0,-0.204249 -0.08903,-0.377075 -0.08903,-0.178063 -0.261857,-0.282806 -0.172826,-0.104743 -0.429447,-0.104743 -0.209486,0 -0.382312,0.104743 -0.172825,0.104743 -0.277568,0.282806 -0.104743,0.172826 -0.104743,0.377075 z"
         id="path3691" />
      <path
         d="m 94.076414,18.514332 q -0.748912,0 -1.173121,-0.157115 -0.418972,-0.162351 -0.60751,-0.418972 -0.188537,-0.25662 -0.235672,-0.565612 -0.0419,-0.308992 -0.0419,-0.607509 v -6.148415 h 1.995354 v 5.876083 q 0,0.193774 0.09951,0.3666 0.09951,0.172826 0.513241,0.230435 l 0.21996,0.02095 v 1.235967 q -0.1833,0.06808 -0.377074,0.115217 -0.193775,0.05237 -0.392787,0.05237 z"
         id="path3693" />
      <path
         d="m 97.611468,18.514332 q -0.748913,0 -1.173122,-0.157115 -0.418972,-0.162351 -0.60751,-0.418972 -0.188537,-0.25662 -0.235671,-0.565612 -0.0419,-0.308992 -0.0419,-0.607509 v -6.148415 h 1.995355 v 5.876083 q 0,0.193774 0.09951,0.3666 0.0995,0.172826 0.51324,0.230435 l 0.219961,0.02095 v 1.235967 q -0.183301,0.06808 -0.377075,0.115217 -0.193775,0.05237 -0.392786,0.05237 z"
         id="path3695" />
      <path
         d="m 104.94869,18.503858 q -1.07885,0 -1.88537,-0.487055 -0.80652,-0.492292 -1.25168,-1.361659 -0.44516,-0.874604 -0.44516,-2.016303 0,-1.178359 0.47135,-2.0582 0.47658,-0.885079 1.30928,-1.372134 0.83795,-0.487055 1.92728,-0.487055 0.76462,0 1.37213,0.230435 0.60751,0.230435 1.03695,0.628458 0.43469,0.392786 0.66512,0.890316 0.23044,0.497529 0.24091,1.026481 h -2.13152 q -0.0681,-0.308992 -0.2252,-0.555138 -0.15187,-0.246146 -0.40326,-0.387549 -0.25138,-0.14664 -0.60751,-0.14664 -0.37183,0 -0.70177,0.204249 -0.32471,0.199011 -0.52896,0.675592 -0.19901,0.471344 -0.19901,1.288339 0,0.696541 0.14141,1.125987 0.14664,0.424209 0.37183,0.649407 0.23044,0.225197 0.49753,0.303755 0.2671,0.07856 0.50801,0.07856 0.21472,0 0.39802,-0.06285 0.1833,-0.06285 0.3247,-0.162352 0.14141,-0.104743 0.23567,-0.230434 0.0995,-0.125692 0.14141,-0.256621 l 0.089,-0.272331 h -1.31976 v -1.372134 l 3.46699,0.02095 v 4.001183 h -1.33547 v -0.837944 q -0.18854,0.193774 -0.45563,0.413734 -0.26186,0.219961 -0.67036,0.377075 -0.4085,0.151878 -1.03696,0.151878 z"
         id="path3697" />
      <path
         d="m 109.64117,18.399115 v -5.415214 h 1.96917 v 1.497825 q 0.12569,-0.434683 0.35613,-0.796047 0.23567,-0.3666 0.59703,-0.58656 0.36137,-0.219961 0.86413,-0.219961 0.0367,0 0.0576,0 0.0209,0 0.0209,0 v 1.927272 q -0.0157,-0.0052 -0.0314,-0.0052 -0.0105,0 -0.0367,-0.0052 -0.57085,-0.05761 -0.92174,0.01048 -0.34565,0.06808 -0.52895,0.225197 -0.1833,0.151877 -0.24615,0.356126 -0.0628,0.199012 -0.0628,0.413735 v 2.597627 z"
         id="path3699" />
      <path
         d="m 116.74797,18.503858 q -0.83795,0 -1.45593,-0.356127 -0.61275,-0.356126 -0.95316,-0.979347 -0.33518,-0.628458 -0.33518,-1.440216 0,-0.853655 0.35089,-1.492588 0.35613,-0.644169 0.97411,-1.000295 0.62322,-0.356127 1.42974,-0.356127 0.84842,0 1.46117,0.371838 0.61798,0.3666 0.94792,1.01077 0.33518,0.644169 0.33518,1.466402 0,0.806521 -0.34042,1.434979 -0.33517,0.623221 -0.95316,0.984584 -0.61798,0.356127 -1.46116,0.356127 z m 0.0105,-1.476877 q 0.32471,0 0.48706,-0.21996 0.16759,-0.225198 0.21996,-0.544664 0.0576,-0.319466 0.0576,-0.607509 0,-0.293281 -0.0576,-0.597035 -0.0524,-0.308992 -0.21996,-0.513241 -0.16235,-0.209486 -0.48706,-0.209486 -0.32994,0 -0.49753,0.209486 -0.16235,0.204249 -0.21996,0.513241 -0.0576,0.303754 -0.0576,0.597035 0,0.288043 0.0576,0.607509 0.0576,0.319466 0.21996,0.544664 0.16759,0.21996 0.49753,0.21996 z"
         id="path3701" />
      <path
         d="m 122.28364,18.503858 q -0.32994,0 -0.68607,-0.109981 -0.35613,-0.115217 -0.66512,-0.335177 -0.30899,-0.21996 -0.50276,-0.534189 -0.19378,-0.319467 -0.19378,-0.727964 v -3.812646 h 2.04249 v 3.52984 q 0,0.235671 0.17283,0.398023 0.17282,0.157114 0.48181,0.157114 0.309,0 0.48182,-0.157114 0.17807,-0.162352 0.17807,-0.398023 v -3.52984 h 2.02154 v 5.415214 h -1.5083 l -0.24091,-1.110276 q -0.0995,0.539426 -0.37708,0.801284 -0.27757,0.25662 -0.61274,0.335177 -0.32994,0.07856 -0.5918,0.07856 z"
         id="path3703" />
      <path
         d="m 126.66187,20.085477 v -7.101576 h 2.04773 v 0.628458 q 0.15187,-0.209486 0.34565,-0.350889 0.19901,-0.141403 0.41373,-0.225197 0.21473,-0.0838 0.42945,-0.120455 0.21472,-0.03666 0.40326,-0.03666 0.56561,0 1.01601,0.298518 0.45039,0.298517 0.71225,0.921738 0.26186,0.617984 0.26186,1.576383 0,1.031718 -0.31423,1.654939 -0.30899,0.617984 -0.817,0.895553 -0.50276,0.277569 -1.07885,0.277569 -0.16759,0 -0.35613,-0.0419 -0.1833,-0.0419 -0.37183,-0.130928 -0.1833,-0.09427 -0.35089,-0.235672 -0.16759,-0.14664 -0.30376,-0.356126 v 2.346243 z m 2.88567,-3.037547 q 0.34042,0 0.59704,-0.319466 0.26185,-0.324704 0.26185,-1.052667 0,-0.659881 -0.26185,-1.01077 -0.25662,-0.35089 -0.59704,-0.35089 -0.44516,0 -0.6494,0.408498 -0.19902,0.403261 -0.19902,0.953162 0,0.32994 0.089,0.649406 0.089,0.314229 0.27234,0.518478 0.18853,0.204249 0.48705,0.204249 z"
         id="path3705" />
    </g>
    <g
       aria-label="quantum photochemistry"
       id="text13292"
       style="font-weight:900;font-size:7.332px;line-height:125%;font-family:'Public Sans';-inkscape-font-specification:'Public Sans Heavy';letter-spacing:0px;word-spacing:0px;fill:#ffffff;stroke-width:0.196393px">
      <path
         d="m 46.671928,32.672399 v -1.865994 q -0.05866,0.120978 -0.157638,0.252954 -0.09898,0.131976 -0.245622,0.249288 -0.142974,0.113646 -0.340938,0.1833 -0.194298,0.07332 -0.447252,0.07332 -0.45825,0 -0.817518,-0.208962 -0.359268,-0.212628 -0.56823,-0.65988 -0.205296,-0.447252 -0.205296,-1.151124 0,-0.60489 0.175968,-1.033812 0.179634,-0.428922 0.520572,-0.656214 0.344604,-0.227292 0.839514,-0.227292 0.260286,0 0.461916,0.06965 0.205296,0.06965 0.355602,0.179634 0.153972,0.10998 0.25662,0.23829 0.106314,0.12831 0.172302,0.245622 l 0.0073,-0.65988 h 0.67821 v 4.971096 z m -1.06314,-1.635036 q 0.351936,0 0.590226,-0.197964 0.23829,-0.197964 0.359268,-0.53157 0.120978,-0.333606 0.120978,-0.740532 0,-0.630552 -0.271284,-1.019148 -0.267618,-0.392262 -0.799188,-0.392262 -0.465582,0 -0.766194,0.34827 -0.296946,0.34827 -0.296946,1.06314 0,0.685542 0.271284,1.077804 0.27495,0.392262 0.791856,0.392262 z"
         style="font-weight:normal;-inkscape-font-specification:'Public Sans'"
         id="path3708" />
      <path
         d="m 49.868673,31.565267 q -0.296946,-0.0037 -0.560898,-0.08432 -0.260286,-0.08432 -0.461916,-0.245622 -0.20163,-0.161304 -0.318942,-0.399594 -0.113646,-0.241956 -0.113646,-0.560898 v -2.573532 h 0.67821 v 2.503878 q 0,0.370266 0.227292,0.601224 0.230958,0.230958 0.692874,0.230958 0.417924,0 0.670878,-0.216294 0.25662,-0.21996 0.25662,-0.652548 v -2.467218 h 0.674544 v 3.790644 h -0.538902 l -0.06965,-0.725868 q -0.06965,0.285948 -0.23829,0.461916 -0.16497,0.175968 -0.399594,0.260286 -0.230958,0.08065 -0.498576,0.07699 z"
         style="font-weight:normal;-inkscape-font-specification:'Public Sans'"
         id="path3710" />
      <path
         d="m 53.794956,31.565267 q -0.370266,0 -0.652548,-0.12831 -0.278616,-0.131976 -0.43992,-0.377598 -0.157638,-0.245622 -0.157638,-0.593892 0,-0.630552 0.43992,-0.938496 0.43992,-0.307944 1.41141,-0.32994 l 0.674544,-0.01833 v -0.296946 q 0,-0.34827 -0.208962,-0.5499 -0.208962,-0.205296 -0.645216,-0.205296 -0.326274,0.0037 -0.575562,0.153972 -0.249288,0.150306 -0.318942,0.491244 h -0.597558 q 0.022,-0.370266 0.205296,-0.62322 0.186966,-0.25662 0.524238,-0.388596 0.337272,-0.131976 0.795522,-0.131976 0.49491,0 0.821184,0.139308 0.32994,0.139308 0.491244,0.410592 0.16497,0.271284 0.16497,0.667212 v 2.646852 H 55.14771 l -0.05132,-0.711204 q -0.216294,0.443586 -0.557232,0.615888 -0.337272,0.168636 -0.744198,0.168636 z m 0.20163,-0.487578 q 0.194298,0 0.381264,-0.06965 0.190632,-0.06965 0.344604,-0.186966 0.157638,-0.120978 0.252954,-0.267618 0.09532,-0.150306 0.09532,-0.307944 v -0.648882 l -0.560898,0.011 q -0.436254,0.0073 -0.725868,0.08798 -0.289614,0.08065 -0.436254,0.252954 -0.14664,0.172302 -0.14664,0.450918 0,0.318942 0.223626,0.498576 0.223626,0.179634 0.571896,0.179634 z"
         style="font-weight:normal;-inkscape-font-specification:'Public Sans'"
         id="path3712" />
      <path
         d="m 56.786409,31.491947 v -3.790644 h 0.656214 v 0.5499 q 0.09165,-0.157638 0.252954,-0.296946 0.16497,-0.139308 0.395928,-0.223626 0.234624,-0.08432 0.538902,-0.08432 0.359268,0 0.65988,0.142974 0.304277,0.142974 0.483911,0.447252 0.1833,0.300612 0.1833,0.777192 v 2.478216 h -0.678209 v -2.412228 q 0,-0.443586 -0.234624,-0.656214 -0.230958,-0.216294 -0.601224,-0.216294 -0.25662,0 -0.480246,0.08432 -0.223626,0.08065 -0.362934,0.249288 -0.139308,0.16497 -0.139308,0.417924 v 2.533206 z"
         style="font-weight:normal;-inkscape-font-specification:'Public Sans'"
         id="path3714" />
      <path
         d="m 62.248274,31.510277 q -0.392262,0 -0.608556,-0.106314 -0.216294,-0.106314 -0.304278,-0.315276 -0.08432,-0.208962 -0.08432,-0.51324 v -2.379234 h -0.615888 v -0.49491 h 0.634218 l 0.16497,-1.103466 h 0.498576 v 1.0998 h 0.854178 v 0.498576 h -0.854178 v 2.357238 q 0,0.20163 0.04033,0.296946 0.04399,0.09165 0.142974,0.117312 0.09898,0.02566 0.278616,0.02566 h 0.414258 v 0.454584 q -0.06965,0.02566 -0.212628,0.04399 -0.139308,0.01833 -0.34827,0.01833 z"
         style="font-weight:normal;-inkscape-font-specification:'Public Sans'"
         id="path3716" />
      <path
         d="m 65.067419,31.565267 q -0.296946,-0.0037 -0.560898,-0.08432 -0.260286,-0.08432 -0.461916,-0.245622 -0.20163,-0.161304 -0.318942,-0.399594 -0.113646,-0.241956 -0.113646,-0.560898 v -2.573532 h 0.67821 v 2.503878 q 0,0.370266 0.227292,0.601224 0.230958,0.230958 0.692874,0.230958 0.417924,0 0.670878,-0.216294 0.25662,-0.21996 0.25662,-0.652548 v -2.467218 h 0.674544 v 3.790644 h -0.538902 l -0.06965,-0.725868 q -0.06965,0.285948 -0.23829,0.461916 -0.16497,0.175968 -0.399594,0.260286 -0.230958,0.08065 -0.498576,0.07699 z"
         style="font-weight:normal;-inkscape-font-specification:'Public Sans'"
         id="path3718" />
      <path
         d="m 67.97867,31.491947 v -3.790644 h 0.652548 v 0.5499 q 0.157638,-0.249288 0.432588,-0.436254 0.27495,-0.186966 0.71487,-0.186966 0.205296,0 0.417924,0.06965 0.216294,0.06965 0.395928,0.208962 0.179634,0.139308 0.278616,0.340938 0.175968,-0.278616 0.47658,-0.447252 0.300612,-0.172302 0.67821,-0.172302 0.197964,0 0.414258,0.06232 0.216294,0.05866 0.399594,0.212628 0.186966,0.150306 0.304278,0.42159 0.117312,0.267618 0.117312,0.689208 v 2.478216 H 72.5795 v -2.412228 q 0,-0.344604 -0.10998,-0.53157 -0.10998,-0.190632 -0.289614,-0.267618 -0.175968,-0.07699 -0.377598,-0.07699 -0.175968,0 -0.373932,0.06965 -0.197964,0.06965 -0.337272,0.234624 -0.139308,0.16497 -0.139308,0.450918 v 2.533206 h -0.674544 v -2.610192 q 0,-0.223626 -0.120978,-0.373932 -0.117312,-0.150306 -0.296946,-0.227292 -0.175968,-0.07699 -0.351936,-0.07699 -0.194298,0 -0.392262,0.07699 -0.194298,0.07699 -0.32994,0.245622 -0.131976,0.16497 -0.131976,0.432588 v 2.533206 z"
         style="font-weight:normal;-inkscape-font-specification:'Public Sans'"
         id="path3720" />
      <path
         d="m 76.102511,32.672399 v -4.971096 h 0.674544 l 0.0073,0.65988 q 0.06599,-0.117312 0.168636,-0.245622 0.106314,-0.12831 0.25662,-0.23829 0.153972,-0.10998 0.355602,-0.179634 0.205296,-0.06965 0.465582,-0.06965 0.454584,0 0.799188,0.208962 0.34827,0.205296 0.542568,0.630552 0.194298,0.425256 0.194298,1.077804 0,0.652548 -0.190632,1.103466 -0.186966,0.447252 -0.542568,0.681876 -0.355602,0.234624 -0.857844,0.234624 -0.252954,0 -0.450918,-0.07332 -0.194298,-0.06965 -0.340938,-0.1833 -0.142974,-0.117312 -0.241956,-0.249288 -0.09532,-0.131976 -0.157638,-0.252954 v 1.865994 z m 1.745016,-1.635036 q 0.469248,0 0.766194,-0.355602 0.296946,-0.359268 0.296946,-1.114464 0,-0.648882 -0.271284,-1.030146 -0.271284,-0.381264 -0.791856,-0.381264 -0.527904,0 -0.799188,0.392262 -0.271284,0.388596 -0.271284,1.019148 0,0.406926 0.120978,0.740532 0.120978,0.333606 0.359268,0.53157 0.23829,0.197964 0.590226,0.197964 z"
         style="font-weight:normal;-inkscape-font-specification:'Public Sans'"
         id="path3722" />
      <path
         d="m 80.468708,31.491947 v -5.447676 h 0.65988 v 2.214264 q 0.09532,-0.157638 0.25662,-0.29328 0.161304,-0.139308 0.392262,-0.223626 0.230958,-0.08798 0.535236,-0.08798 0.370266,0 0.670878,0.139308 0.300612,0.135642 0.47658,0.388596 0.175968,0.252954 0.175968,0.601224 v 2.709174 h -0.67821 v -2.573532 q 0,-0.340938 -0.234624,-0.524238 -0.230958,-0.186966 -0.60489,-0.186966 -0.252954,0 -0.47658,0.08432 -0.223626,0.08065 -0.362934,0.249288 -0.135642,0.16497 -0.135642,0.42159 v 2.52954 z"
         style="font-weight:normal;-inkscape-font-specification:'Public Sans'"
         id="path3724" />
      <path
         d="m 86.21333,31.565267 q -0.524238,0 -0.9165,-0.223626 -0.388596,-0.227292 -0.60489,-0.663546 -0.216294,-0.436254 -0.216294,-1.066806 0,-0.593892 0.20163,-1.041144 0.20163,-0.447252 0.590226,-0.692874 0.388596,-0.249288 0.949494,-0.249288 0.524238,0 0.909168,0.230958 0.38493,0.227292 0.597558,0.670878 0.216294,0.443586 0.216294,1.08147 0,0.579228 -0.197964,1.019148 -0.197964,0.43992 -0.582894,0.689208 -0.381264,0.245622 -0.945828,0.245622 z m 0.0037,-0.535236 q 0.337272,0 0.571896,-0.172302 0.234624,-0.172302 0.355602,-0.49491 0.124644,-0.322608 0.124644,-0.766194 0,-0.406926 -0.10998,-0.729534 -0.106314,-0.326274 -0.337272,-0.516906 -0.230958,-0.190632 -0.60489,-0.190632 -0.344604,0 -0.582894,0.172302 -0.23829,0.168636 -0.362934,0.491244 -0.120978,0.322608 -0.120978,0.773526 0,0.399594 0.106314,0.725868 0.10998,0.326274 0.344604,0.516906 0.23829,0.190632 0.615888,0.190632 z"
         style="font-weight:normal;-inkscape-font-specification:'Public Sans'"
         id="path3726" />
      <path
         d="m 90.06169,31.510277 q -0.392262,0 -0.608556,-0.106314 -0.216294,-0.106314 -0.304278,-0.315276 -0.08432,-0.208962 -0.08432,-0.51324 V 28.196213 H 88.44865 v -0.49491 h 0.634218 l 0.16497,-1.103466 h 0.498576 v 1.0998 h 0.854178 v 0.498576 h -0.854178 v 2.357238 q 0,0.20163 0.04033,0.296946 0.04399,0.09165 0.142974,0.117312 0.09898,0.02566 0.278616,0.02566 h 0.414258 v 0.454584 q -0.06965,0.02566 -0.212628,0.04399 -0.139308,0.01833 -0.34827,0.01833 z"
         style="font-weight:normal;-inkscape-font-specification:'Public Sans'"
         id="path3728" />
      <path
         d="m 92.943624,31.565267 q -0.524238,0 -0.9165,-0.223626 -0.388596,-0.227292 -0.60489,-0.663546 -0.216294,-0.436254 -0.216294,-1.066806 0,-0.593892 0.20163,-1.041144 0.20163,-0.447252 0.590226,-0.692874 0.388596,-0.249288 0.949494,-0.249288 0.524238,0 0.909168,0.230958 0.38493,0.227292 0.597558,0.670878 0.216294,0.443586 0.216294,1.08147 0,0.579228 -0.197964,1.019148 -0.197964,0.43992 -0.582894,0.689208 -0.381264,0.245622 -0.945828,0.245622 z m 0.0037,-0.535236 q 0.337272,0 0.571896,-0.172302 0.234624,-0.172302 0.355602,-0.49491 0.124644,-0.322608 0.124644,-0.766194 0,-0.406926 -0.10998,-0.729534 -0.106314,-0.326274 -0.337272,-0.516906 -0.230958,-0.190632 -0.60489,-0.190632 -0.344604,0 -0.582894,0.172302 -0.23829,0.168636 -0.362934,0.491244 -0.120978,0.322608 -0.120978,0.773526 0,0.399594 0.106314,0.725868 0.10998,0.326274 0.344604,0.516906 0.23829,0.190632 0.615888,0.190632 z"
         style="font-weight:normal;-inkscape-font-specification:'Public Sans'"
         id="path3730" />
      <path
         d="m 97.097192,31.565267 q -0.51324,0 -0.909168,-0.223626 -0.392262,-0.223626 -0.615888,-0.65988 -0.21996,-0.436254 -0.21996,-1.070472 0,-0.593892 0.20163,-1.037478 0.205296,-0.447252 0.593892,-0.69654 0.392262,-0.249288 0.949494,-0.249288 0.406926,0 0.729534,0.157638 0.326274,0.153972 0.535236,0.43992 0.208962,0.285948 0.25662,0.674544 h -0.601224 q -0.03299,-0.197964 -0.153972,-0.362934 -0.117312,-0.16497 -0.31161,-0.263952 -0.190632,-0.09898 -0.450918,-0.09898 -0.487578,0 -0.795522,0.351936 -0.304278,0.351936 -0.304278,1.077804 0,0.656214 0.278616,1.052142 0.282282,0.392262 0.828516,0.392262 0.260286,0 0.454584,-0.09898 0.194298,-0.102648 0.31161,-0.267618 0.117312,-0.168636 0.150306,-0.359268 h 0.590226 q -0.04766,0.381264 -0.260286,0.65988 -0.208962,0.278616 -0.535236,0.432588 -0.322608,0.150306 -0.722202,0.150306 z"
         style="font-weight:normal;-inkscape-font-specification:'Public Sans'"
         id="path3732" />
      <path
         d="m 99.508949,31.491947 v -5.447676 h 0.659881 v 2.214264 q 0.0953,-0.157638 0.25662,-0.29328 0.1613,-0.139308 0.39226,-0.223626 0.23096,-0.08798 0.53524,-0.08798 0.37026,0 0.67088,0.139308 0.30061,0.135642 0.47658,0.388596 0.17596,0.252954 0.17596,0.601224 v 2.709174 h -0.67821 v -2.573532 q 0,-0.340938 -0.23462,-0.524238 -0.23096,-0.186966 -0.60489,-0.186966 -0.25295,0 -0.47658,0.08432 -0.22363,0.08065 -0.36293,0.249288 -0.13565,0.16497 -0.13565,0.42159 v 2.52954 z"
         style="font-weight:normal;-inkscape-font-specification:'Public Sans'"
         id="path3734" />
      <path
         d="m 105.33789,31.565267 q -0.52791,0 -0.93117,-0.230958 -0.40326,-0.230958 -0.63055,-0.663546 -0.22729,-0.432588 -0.22729,-1.037478 0,-0.597558 0.20529,-1.048476 0.2053,-0.450918 0.5939,-0.703872 0.39226,-0.252954 0.94216,-0.252954 0.53523,0 0.9055,0.230958 0.37027,0.230958 0.5609,0.652548 0.1943,0.417924 0.1943,0.993486 v 0.249288 h -2.71651 q 0,0.359268 0.11731,0.652548 0.12098,0.289614 0.36294,0.461916 0.24195,0.172302 0.61222,0.172302 0.36293,0 0.62322,-0.168636 0.26395,-0.168636 0.33727,-0.487578 h 0.63788 q -0.066,0.38493 -0.30794,0.648882 -0.23829,0.263952 -0.57556,0.399594 -0.33361,0.131976 -0.70387,0.131976 z m -1.0998,-2.269254 h 2.06029 q 0,-0.326274 -0.10998,-0.58656 -0.10998,-0.263952 -0.33727,-0.414258 -0.22363,-0.153972 -0.56457,-0.153972 -0.3556,0 -0.59022,0.172302 -0.23463,0.168636 -0.34827,0.436254 -0.11365,0.263952 -0.10998,0.546234 z"
         style="font-weight:normal;-inkscape-font-specification:'Public Sans'"
         id="path3736" />
      <path
         d="m 107.88942,31.491947 v -3.790644 h 0.65255 v 0.5499 q 0.15764,-0.249288 0.43259,-0.436254 0.27495,-0.186966 0.71487,-0.186966 0.20529,0 0.41792,0.06965 0.21629,0.06965 0.39593,0.208962 0.17963,0.139308 0.27861,0.340938 0.17597,-0.278616 0.47658,-0.447252 0.30062,-0.172302 0.67821,-0.172302 0.19797,0 0.41426,0.06232 0.2163,0.05866 0.3996,0.212628 0.18696,0.150306 0.30427,0.42159 0.11732,0.267618 0.11732,0.689208 v 2.478216 h -0.68188 v -2.412228 q 0,-0.344604 -0.10998,-0.53157 -0.10998,-0.190632 -0.28961,-0.267618 -0.17597,-0.07699 -0.3776,-0.07699 -0.17597,0 -0.37393,0.06965 -0.19797,0.06965 -0.33728,0.234624 -0.1393,0.16497 -0.1393,0.450918 v 2.533206 H 110.188 v -2.610192 q 0,-0.223626 -0.12098,-0.373932 -0.11731,-0.150306 -0.29694,-0.227292 -0.17597,-0.07699 -0.35194,-0.07699 -0.1943,0 -0.39226,0.07699 -0.1943,0.07699 -0.32994,0.245622 -0.13198,0.16497 -0.13198,0.432588 v 2.533206 z"
         style="font-weight:normal;-inkscape-font-specification:'Public Sans'"
         id="path3738" />
      <path
         d="m 114.24993,31.491947 v -3.790644 h 0.65622 v 3.790644 z m -0.0183,-4.593498 v -0.703872 h 0.69288 v 0.703872 z"
         style="font-weight:normal;-inkscape-font-specification:'Public Sans'"
         id="path3740" />
      <path
         d="m 117.41002,31.565267 q -0.39593,0 -0.73687,-0.120978 -0.33727,-0.124644 -0.56089,-0.38493 -0.22363,-0.263952 -0.27862,-0.670878 h 0.61589 q 0.0477,0.223626 0.1833,0.373932 0.13564,0.14664 0.3336,0.223626 0.20163,0.07332 0.43992,0.07332 0.38493,0 0.61956,-0.142974 0.23462,-0.142974 0.23462,-0.43992 0,-0.208962 -0.12464,-0.333606 -0.12098,-0.12831 -0.38127,-0.186966 l -0.78452,-0.194298 q -0.45825,-0.10998 -0.7332,-0.344604 -0.27128,-0.234624 -0.27495,-0.656214 0,-0.333606 0.1613,-0.58656 0.16131,-0.252954 0.48025,-0.399594 0.32261,-0.14664 0.80285,-0.14664 0.61956,0 0.99716,0.278616 0.37759,0.27495 0.39592,0.810186 h -0.60122 q -0.0367,-0.271284 -0.24196,-0.428922 -0.20529,-0.161304 -0.55723,-0.161304 -0.35927,0 -0.59022,0.14664 -0.2273,0.142974 -0.2273,0.447252 0,0.20163 0.16131,0.318942 0.16497,0.113646 0.47658,0.190632 l 0.76253,0.190632 q 0.26028,0.06965 0.43258,0.1833 0.17231,0.113646 0.27129,0.252954 0.099,0.139308 0.13931,0.29328 0.044,0.150306 0.044,0.289614 0,0.34827 -0.1723,0.601224 -0.17231,0.249288 -0.49858,0.388596 -0.32627,0.135642 -0.78819,0.135642 z"
         style="font-weight:normal;-inkscape-font-specification:'Public Sans'"
         id="path3742" />
      <path
         d="m 121.06203,31.510277 q -0.39226,0 -0.60855,-0.106314 -0.2163,-0.106314 -0.30428,-0.315276 -0.0843,-0.208962 -0.0843,-0.51324 v -2.379234 h -0.61589 v -0.49491 h 0.63422 l 0.16497,-1.103466 h 0.49858 v 1.0998 h 0.85417 v 0.498576 h -0.85417 v 2.357238 q 0,0.20163 0.0403,0.296946 0.044,0.09165 0.14298,0.117312 0.099,0.02566 0.27861,0.02566 h 0.41426 v 0.454584 q -0.0696,0.02566 -0.21263,0.04399 -0.13931,0.01833 -0.34827,0.01833 z"
         style="font-weight:normal;-inkscape-font-specification:'Public Sans'"
         id="path3744" />
      <path
         d="m 122.52477,31.491947 v -3.790644 h 0.64521 v 0.729534 q 0.0953,-0.271284 0.26762,-0.447252 0.1723,-0.179634 0.39226,-0.267618 0.22363,-0.08798 0.46192,-0.08798 0.0843,0 0.16497,0.011 0.0807,0.011 0.12464,0.03666 v 0.656214 q -0.055,-0.02566 -0.14297,-0.03299 -0.0843,-0.011 -0.14297,-0.011 -0.2273,-0.01466 -0.42526,0.02933 -0.19796,0.04033 -0.34827,0.142974 -0.15031,0.102648 -0.23829,0.271284 -0.0843,0.16497 -0.0843,0.40326 v 2.357238 z"
         style="font-weight:normal;-inkscape-font-specification:'Public Sans'"
         id="path3746" />
      <path
         d="m 125.86654,32.701727 q -0.33361,0 -0.45825,-0.04766 -0.12464,-0.04766 -0.12464,-0.04766 v -0.43992 l 0.38859,0.0073 q 0.20896,0.0073 0.34827,-0.02933 0.13931,-0.03666 0.22363,-0.09898 0.0843,-0.06232 0.12831,-0.139308 0.0477,-0.07699 0.077,-0.14664 l 0.13198,-0.359268 -1.48106,-3.698994 h 0.68554 l 1.11813,2.925468 1.1108,-2.925468 h 0.66354 l -1.59471,4.076592 q -0.1503,0.359268 -0.3336,0.560898 -0.17964,0.20163 -0.40326,0.282282 -0.21996,0.08065 -0.48025,0.08065 z"
         style="font-weight:normal;-inkscape-font-specification:'Public Sans'"
         id="path3748" />
    </g>
  </g>
</svg>
