<?xml version="1.0" encoding="UTF-8" standalone="no"?>
<!-- Created with Inkscape (http://www.inkscape.org/) -->

<svg
   width="500"
   height="156.75101"
   viewBox="0 0 132.29167 41.473704"
   version="1.1"
   id="svg5"
   inkscape:version="1.1.2 (0a00cf5339, 2022-02-04)"
   sodipodi:docname="logo_onblack.svg"
   xmlns:inkscape="http://www.inkscape.org/namespaces/inkscape"
   xmlns:sodipodi="http://sodipodi.sourceforge.net/DTD/sodipodi-0.dtd"
   xmlns="http://www.w3.org/2000/svg"
   xmlns:svg="http://www.w3.org/2000/svg">
  <sodipodi:namedview
     id="namedview7"
     pagecolor="#ffffff"
     bordercolor="#666666"
     borderopacity="1.0"
     inkscape:pageshadow="2"
     inkscape:pageopacity="0.0"
     inkscape:pagecheckerboard="0"
     inkscape:document-units="px"
     showgrid="false"
     units="px"
     inkscape:zoom="2.0460067"
     inkscape:cx="204.05602"
     inkscape:cy="118.0348"
     inkscape:window-width="1920"
     inkscape:window-height="994"
     inkscape:window-x="0"
     inkscape:window-y="29"
     inkscape:window-maximized="1"
     inkscape:current-layer="layer1" />
  <defs
     id="defs2" />
  <g
     inkscape:label="Layer 1"
     inkscape:groupmode="layer"
     id="layer1">
    <g
       id="g7836"
       transform="matrix(0.55756855,0,0,0.55756855,-1128.6085,-218.98858)">
      <g
         id="g7834"
         transform="matrix(0.93375876,0,0,0.93375876,-311.52962,256.19931)"
         inkscape:export-filename="/home/rymac/Documents/Projects/ResearchGroup/group_logo/group_logo_mol_pallette.png"
         inkscape:export-xdpi="96"
         inkscape:export-ydpi="96">
        <path
           style="color:#000000;fill:#ffffff;stroke-width:0.0644124;stroke-linecap:round;stroke-linejoin:round;-inkscape-stroke:none"
           d="m 2529.8965,146.24433 v 7.3e-4 c -7.561,0 -14.8137,3.00451 -20.1601,8.35098 -5.3467,5.34667 -8.351,12.59965 -8.351,20.16099 v 8.6e-4 c 0.01,11.2851 6.6821,21.50873 17.0067,26.06216 -1.7153,1.93413 -2.7614,4.47909 -2.7613,7.25987 0,6.03091 4.9166,10.94753 10.9475,10.94761 0,0 0,0 0.01,0 0.4235,-0.002 0.8463,-0.037 1.2678,-0.0874 1.1751,0.91594 2.485,1.644 3.8821,2.16449 2.0774,2.99206 5.4935,4.7962 9.1549,4.79986 v 0 c 6.1506,0 11.1642,-5.01362 11.1642,-11.16412 v -0.002 c 0,-1.52593 -0.3209,-3.03237 -0.9276,-4.42923 0.023,-0.11266 0.05,-0.22463 0.07,-0.3378 2.0147,-0.86579 3.8032,-2.18083 5.2344,-3.84449 5.7173,-0.35783 10.2648,-5.1164 10.2659,-10.91389 0,-5.66697 -4.34,-10.3488 -9.8667,-10.89628 l 0.5239,-1.87086 c 0.01,-0.0412 0.01,-0.0828 0.013,-0.12442 0.6844,-2.46229 1.036,-5.0053 1.0427,-7.56117 0,-8.7e-4 0,-0.003 0,-0.003 0,-7.56135 -3.0043,-14.81432 -8.351,-20.16099 -5.3466,-5.34668 -12.5996,-8.35098 -20.161,-8.35099 z"
           id="path7826"
           sodipodi:nodetypes="ccssscsscccsssscccccccscscc" />
        <path
           id="path7828"
           style="fill:#ffd400;fill-opacity:1;stroke:none;stroke-width:0.515301;stroke-linecap:round;stroke-linejoin:round;stroke-miterlimit:4;stroke-dasharray:none;stroke-opacity:1"
           d="m 2529.8958,147.53297 a 27.223734,27.223734 0 0 0 -27.2238,27.22371 27.223734,27.223734 0 0 0 19.2126,26.01774 v 0 l 26.6942,8.22003 7.5326,-26.89625 -0.021,0.0114 a 27.223734,27.223734 0 0 0 1.0297,-7.35334 27.223734,27.223734 0 0 0 -27.2237,-27.22372 z" />
        <path
           id="path7830"
           style="fill:#242424;fill-opacity:1;fill-rule:evenodd;stroke:none;stroke-width:0.813884;stroke-miterlimit:4;stroke-dasharray:none;stroke-opacity:1"
           d="m 2541.9417,157.60369 v 0 c -4.2133,0.003 -8.161,2.05729 -10.5794,5.5074 -0.8058,0.0925 -1.6044,0.23913 -2.3905,0.43879 -2.1104,-1.33856 -4.5581,-2.0494 -7.0573,-2.0495 -7.2776,0 -13.1771,5.89972 -13.1771,13.17728 0,5.00854 2.8431,9.58285 7.3319,11.80459 -0.2141,0.94169 -0.3223,1.90445 -0.3224,2.87014 0,1.70976 0.3433,3.4021 1.0029,4.9795 -1.5806,0.1312 -3.0775,0.53326 -4.45,1.15465 a 27.223731,27.223731 0 0 0 8.4486,4.89121 c -2.3271,1.76378 -3.8311,4.55692 -3.8311,7.70206 0,5.3347 4.3247,9.6593 9.6595,9.65937 0.5509,-0.003 1.1008,-0.0508 1.6434,-0.14631 -0.017,-0.0178 -0.035,-0.0371 -0.052,-0.0554 1.292,1.10597 2.7837,1.95432 4.3946,2.49925 1.8103,2.84894 4.9502,4.57597 8.3256,4.57935 5.4543,0 9.8759,-4.42159 9.8759,-9.87587 0,-1.48467 -0.3392,-2.94965 -0.9858,-4.28608 0.1102,-0.46197 0.1956,-0.92949 0.2559,-1.4006 2.2718,-0.83487 4.2687,-2.28154 5.7699,-4.18013 5.3125,-0.0332 9.602,-4.34843 9.603,-9.661 0,-5.33686 -4.3264,-9.66322 -9.6633,-9.66314 -0.2018,0 -0.4035,0.009 -0.6046,0.0219 l 0.9727,-3.47335 -0.021,0.0114 a 27.223731,27.223731 0 0 0 0.9137,-5.71547 c -0.7455,0.0931 -1.4832,0.24635 -2.2048,0.46258 -0.3878,-0.26748 -0.7858,-0.51986 -1.193,-0.75672 0.8307,-1.73898 1.2621,-3.6417 1.2626,-5.56891 0,-7.13957 -5.7877,-12.9273 -12.9272,-12.92743 z" />
        <path
           id="path7832"
           style="fill:#ffffff;fill-opacity:1;fill-rule:evenodd;stroke:none;stroke-width:0.813884;stroke-miterlimit:4;stroke-dasharray:none;stroke-opacity:1"
           d="m 2543.7985,172.18318 c -2.7149,0.003 -5.2729,1.19729 -7.0188,3.23788 -0.077,0.003 -0.1541,0.006 -0.2304,0.0109 h -0.01 -0.01 c -0.9683,0.0887 -1.9051,0.27824 -2.8008,0.55696 -1.3164,-0.66671 -2.7745,-1.01812 -4.2586,-1.01815 -5.2062,0 -9.4266,4.22045 -9.4267,9.42661 0,3.34593 1.7737,6.41434 4.6124,8.1 0.1283,0.47293 0.2821,0.9382 0.4604,1.39407 -0.037,0.33301 -0.057,0.66806 -0.058,1.00381 0.01,1.22632 0.2571,2.43536 0.7319,3.5589 a 9.6594781,9.6594781 0 0 0 -5.0345,1.9232 27.223734,27.223734 0 0 0 1.128,0.39704 l 2.3081,0.7108 1.2472,0.38409 c 0,0 0,-1.2e-4 0,-1.2e-4 l 0.047,0.0146 c 0.014,-0.0654 0.029,-0.13011 0.043,-0.1945 0.6326,-1.24429 1.4585,-2.36206 2.4362,-3.3185 v 0.003 l 0.485,-0.42749 c 1.2466,-1.0991 2.6969,-1.94209 4.2689,-2.4815 l 0.3723,-0.12795 v -0.019 c 0.037,-0.0115 0.074,-0.0232 0.1112,-0.0342 0.1298,-0.0385 0.2601,-0.0755 0.3911,-0.11006 0.1797,-0.0312 0.3638,-0.0536 0.5533,-0.0648 0.063,-0.003 0.1275,-0.006 0.1921,-0.007 2.2937,-0.0428 5.4659,1.38776 8.2729,3.49967 0,0.003 0.01,0.006 0.012,0.009 0.1673,0.12598 0.3332,0.25438 0.4978,0.38485 0.01,0.006 0.016,0.0124 0.023,0.0185 0.1647,0.13098 0.3278,0.26414 0.4894,0.39918 0.01,0.006 0.016,0.0127 0.023,0.019 0.1611,0.13504 0.3206,0.27191 0.4779,0.41053 0.01,0.007 0.015,0.0132 0.023,0.0197 0.1575,0.13901 0.3131,0.27955 0.4664,0.4217 0.01,0.007 0.014,0.0132 0.021,0.0197 0.1532,0.1423 0.3042,0.28603 0.4528,0.431 0.01,0.007 0.013,0.0129 0.02,0.0195 0.1519,0.14855 0.3015,0.29829 0.4481,0.44914 0,0.003 0.01,0.006 0.01,0.009 0.1467,0.1511 0.2907,0.30323 0.4315,0.45617 0,0 0,1.2e-4 0,1.2e-4 0.072,0.0779 0.1429,0.15602 0.213,0.23436 0,0 0,1.3e-4 0,1.3e-4 0.07,0.0784 0.1396,0.15673 0.2079,0.23539 0,0 0,1.2e-4 0,1.2e-4 0.069,0.0786 0.1361,0.15737 0.2029,0.23627 0,0 0,1.2e-4 0,1.2e-4 0.067,0.0789 0.1326,0.15782 0.1975,0.2369 0,0 0,1.2e-4 0,1.2e-4 0.065,0.0791 0.1289,0.15822 0.192,0.23739 0,0 0,1.2e-4 0,1.2e-4 0.063,0.0792 0.125,0.15829 0.186,0.23753 0,0 0,1.2e-4 0,1.2e-4 0.061,0.0792 0.1213,0.15854 0.1803,0.23778 0,0 0,1.2e-4 0,1.2e-4 0.059,0.0793 0.1172,0.15837 0.1741,0.23753 0,0 0,1.3e-4 0,1.3e-4 0.057,0.0791 0.1129,0.15824 0.1677,0.23727 0,0 0,1.2e-4 0,1.2e-4 0.055,0.079 0.1087,0.15795 0.1613,0.23677 0,0 0,1.2e-4 0,1.2e-4 0.053,0.0788 0.1042,0.15747 0.1545,0.23601 0,0 0,1.4e-4 0,1.4e-4 0.05,0.0785 0.1,0.1569 0.1477,0.23512 0,0 0,1.2e-4 0,1.2e-4 0.048,0.0782 0.095,0.15617 0.1404,0.23401 0,0 0,1.2e-4 0,1.2e-4 0.045,0.0779 0.09,0.15549 0.1332,0.23286 0,0 0,1.2e-4 0,1.2e-4 0.043,0.0773 0.085,0.15439 0.1257,0.23122 0,0 0,1.5e-4 0,1.5e-4 0.041,0.0768 0.08,0.15345 0.1181,0.22972 0,0 0,1.2e-4 0,1.2e-4 0.038,0.0763 0.075,0.15223 0.1101,0.22782 0,0 0,1.5e-4 0,1.5e-4 0.036,0.0756 0.069,0.15079 0.1021,0.2257 0,0 0,1.2e-4 0,1.2e-4 v 0.003 l 0.067,0.15134 0.1903,0.43694 v 0 l 0.057,0.1297 0.05,-0.17625 v -2.4e-4 l 0.4869,-1.73837 c -1.2957,-2.51851 -3.6843,-5.08911 -6.3878,-7.12314 -2.9475,-2.21763 -6.2498,-3.81084 -9.0711,-3.75833 -0.3328,0.006 -0.6556,0.0381 -0.9673,0.0936 h -0.01 c 1.3012,-5.61064 6.3034,-9.65439 12.1538,-9.6552 2.2467,2e-5 4.445,0.60752 6.3677,1.74793 -0.2142,0.30318 -0.3642,0.66764 -0.4797,1.0705 -0.2027,0.70822 -0.3094,1.57163 -0.3521,2.55222 -0.085,1.96115 0.096,4.38476 0.4636,6.74495 l 0.2137,1.41278 0.4224,-1.50841 c 0,1.2e-4 0,0 0,0 l 2.9978,-10.70445 a 9.6631374,9.6631374 0 0 0 -1.3157,0.17752 l -0.4474,-0.31148 c -0.3191,-0.22225 -0.6469,-0.42967 -0.9819,-0.62312 0.4257,-1.07499 0.6495,-2.22122 0.6524,-3.38127 0,-5.10752 -4.1405,-9.24795 -9.248,-9.248 z m -6.7428,4.52084 v 0 c 2.0142,0.006 4.3873,0.94359 6.5342,2.40691 1.6552,1.1282 3.1634,2.5645 4.307,4.06441 -0.7777,-0.13728 -1.5694,-0.20815 -2.3666,-0.20971 -0.01,-3e-5 -0.017,0 -0.026,0 -2e-4,0 0,0 0,0 -6.6973,0 -12.4092,4.82577 -13.5619,11.38554 -1.3876,0.51804 -2.674,1.25011 -3.8171,2.16098 -1.6918,-2.15592 -2.6523,-4.79955 -2.6561,-7.55252 0,-6.3601 4.842,-11.65906 11.1753,-12.24051 0.1369,-0.009 0.2735,-0.0134 0.4109,-0.0134 z m 6.1494,29.58635 v 0 c -0.071,0 -0.1425,-6e-5 -0.214,0 -0.7426,0.0122 -1.5004,0.11184 -2.2552,0.2867 l 7.8428,2.41509 0.088,-0.31554 c -1.4072,-1.65689 -3.366,-2.37445 -5.4619,-2.3874 z" />
      </g>
    </g>
    <g
       aria-label="MacDonell Group"
       id="text7840"
       style="font-weight:900;font-size:10.5142px;line-height:125%;font-family:'Public Sans';-inkscape-font-specification:'Public Sans Heavy';letter-spacing:0px;word-spacing:0px;fill:#ffffff;stroke-width:0.19714px">
      <path
         d="m 43.920429,17.966761 v -7.601767 h 3.038603 l 1.230162,4.636762 1.240675,-4.636762 h 3.02809 v 7.601767 H 50.40769 V 12.45732 l -1.482502,5.509441 H 47.4532 L 45.965441,12.45732 v 5.509441 z"
         id="path508" />
      <path
         d="m 55.391386,18.071903 q -0.509938,0 -0.941021,-0.19977 -0.425825,-0.19977 -0.683423,-0.583538 -0.25234,-0.389026 -0.25234,-0.951535 0,-0.883193 0.699194,-1.372104 0.704451,-0.48891 2.186954,-0.48891 h 0.420568 v -0.231312 q 0,-0.262855 -0.147199,-0.383769 -0.141942,-0.120913 -0.452111,-0.110399 -0.210284,0.0053 -0.462625,0.09989 -0.25234,0.09463 -0.378511,0.373254 h -1.655986 q 0.03154,-0.641366 0.383768,-1.035648 0.352226,-0.39954 0.930507,-0.578281 0.578281,-0.183999 1.277475,-0.183999 0.946278,0 1.482502,0.215541 0.536224,0.215541 0.757023,0.59931 0.220798,0.378511 0.220798,0.877935 v 3.848198 h -1.692786 l -0.178742,-0.862165 q -0.241826,0.551996 -0.599309,0.76228 -0.357483,0.205027 -0.914736,0.205027 z m 0.720223,-1.293247 q 0.147199,0 0.273369,-0.05257 0.131428,-0.05257 0.226056,-0.141942 0.09463,-0.09463 0.147198,-0.210284 0.05783,-0.115656 0.06309,-0.247083 v -0.683423 h -0.325941 q -0.16297,0 -0.41531,0.06308 -0.252341,0.05783 -0.452111,0.205027 -0.194513,0.147198 -0.194513,0.415311 0,0.304911 0.205027,0.478396 0.210284,0.173484 0.473139,0.173484 z"
         id="path510" />
      <path
         d="m 62.304461,18.071903 q -0.778051,0 -1.398389,-0.352226 -0.620337,-0.352226 -0.983077,-0.983078 -0.357483,-0.630852 -0.357483,-1.461474 0,-0.841136 0.357483,-1.482502 0.357482,-0.641366 0.97782,-1.004106 0.620338,-0.36274 1.403646,-0.36274 0.767537,0 1.293247,0.32594 0.530967,0.325941 0.804336,0.856908 0.278626,0.530967 0.28914,1.14079 h -1.655986 q -0.02103,-0.152456 -0.08937,-0.341711 -0.06834,-0.189256 -0.215541,-0.32594 -0.147199,-0.141942 -0.410054,-0.141942 -0.394282,0 -0.636109,0.331197 -0.236569,0.32594 -0.236569,0.983078 0,0.667652 0.257598,1.040906 0.257597,0.367997 0.657137,0.367997 0.257598,0 0.39954,-0.152456 0.147199,-0.157713 0.210284,-0.346969 0.06834,-0.189255 0.08411,-0.299654 h 1.608673 q 0,0.578281 -0.283883,1.082962 -0.278627,0.504682 -0.804337,0.814851 -0.52571,0.310169 -1.272218,0.310169 z"
         id="path512" />
      <path
         d="m 65.537563,17.966761 v -7.601767 q 0.08411,0 0.420568,0 0.336454,0 0.77805,0 0.446854,-0.0053 0.867422,0 0.420568,0 0.667652,0.01051 1.372103,0.04731 2.239524,0.536224 0.872679,0.488911 1.282733,1.319532 0.410054,0.830622 0.410054,1.908328 0,1.109248 -0.425826,1.976669 -0.425825,0.862165 -1.298503,1.356332 -0.872679,0.494168 -2.218496,0.494168 z m 2.045012,-1.608673 h 0.741251 q 0.389025,0 0.788565,-0.215541 0.404796,-0.220798 0.678166,-0.714966 0.278626,-0.494167 0.278626,-1.319532 0,-0.699194 -0.220798,-1.172333 -0.215541,-0.478396 -0.609824,-0.720223 -0.394282,-0.241826 -0.914735,-0.241826 h -0.741251 z"
         id="path514" />
      <path
         d="m 75.72056,18.071903 q -0.841136,0 -1.461474,-0.357483 -0.615081,-0.357483 -0.956792,-0.983078 -0.336454,-0.630852 -0.336454,-1.445702 0,-0.856908 0.352225,-1.498274 0.357483,-0.646623 0.977821,-1.004106 0.625595,-0.357483 1.435188,-0.357483 0.85165,0 1.466731,0.373254 0.620338,0.367997 0.951535,1.014621 0.336455,0.646623 0.336455,1.471988 0,0.809593 -0.341712,1.440445 -0.336454,0.625595 -0.956792,0.988335 -0.620338,0.357483 -1.466731,0.357483 z m 0.01051,-1.482503 q 0.32594,0 0.48891,-0.220798 0.168228,-0.226055 0.220799,-0.546738 0.05783,-0.320683 0.05783,-0.609824 0,-0.294397 -0.05783,-0.599309 -0.05257,-0.310169 -0.220799,-0.515196 -0.16297,-0.210284 -0.48891,-0.210284 -0.331197,0 -0.499424,0.210284 -0.16297,0.205027 -0.220799,0.515196 -0.05783,0.304912 -0.05783,0.599309 0,0.289141 0.05783,0.609824 0.05783,0.320683 0.220799,0.546738 0.168227,0.220798 0.499424,0.220798 z"
         id="path516" />
      <path
         d="m 79.326919,17.966761 v -5.435842 h 2.023983 v 0.751765 q 0.115656,-0.173484 0.294398,-0.352225 0.178741,-0.178742 0.462624,-0.299655 0.283884,-0.120913 0.709709,-0.120913 0.478396,0 0.909478,0.183998 0.43634,0.183999 0.709709,0.588795 0.278626,0.404797 0.278626,1.067192 v 3.616885 h -2.050269 v -3.338259 q 0,-0.268112 -0.19977,-0.410054 -0.19977,-0.141941 -0.431082,-0.141941 -0.147199,0 -0.304912,0.06309 -0.152456,0.06308 -0.257598,0.189255 -0.09989,0.120914 -0.09989,0.299655 v 3.338259 z"
         id="path518" />
      <path
         d="m 88.384885,18.071903 q -0.846393,0 -1.493016,-0.341712 -0.641367,-0.346968 -0.998849,-0.967306 -0.357483,-0.620338 -0.357483,-1.445703 0,-0.778051 0.32594,-1.435188 0.331197,-0.657138 0.946278,-1.056677 0.620338,-0.39954 1.493016,-0.39954 0.88845,0 1.482503,0.367997 0.594052,0.367997 0.88845,1.009363 0.299654,0.636109 0.299654,1.440446 v 0.473139 h -3.427629 q -0.0053,0.32594 0.09989,0.530967 0.105142,0.205027 0.283883,0.299655 0.183999,0.09463 0.404797,0.09463 0.278626,0 0.499424,-0.105142 0.226056,-0.105142 0.352226,-0.420568 h 1.808443 q -0.08411,0.604567 -0.478396,1.046163 -0.394283,0.43634 -0.96205,0.672909 -0.56251,0.23657 -1.167076,0.23657 z m -0.85165,-3.501229 h 1.550844 q 0,-0.205027 -0.08937,-0.378511 -0.08937,-0.178742 -0.262855,-0.283884 -0.173485,-0.105142 -0.431083,-0.105142 -0.210284,0 -0.383768,0.105142 -0.173484,0.105142 -0.278626,0.283884 -0.105142,0.173484 -0.105142,0.378511 z"
         id="path520" />
      <path
         d="m 93.931113,18.082417 q -0.751765,0 -1.17759,-0.157713 -0.420568,-0.16297 -0.609824,-0.420568 -0.189255,-0.257598 -0.236569,-0.567767 -0.04206,-0.310169 -0.04206,-0.609824 V 10.15471 h 2.002955 v 5.898466 q 0,0.194513 0.09989,0.367997 0.09989,0.173485 0.515196,0.231313 l 0.220798,0.02103 v 1.240676 q -0.183998,0.06834 -0.378511,0.115656 -0.194513,0.05257 -0.394283,0.05257 z"
         id="path522" />
      <path
         d="m 97.479633,18.082417 q -0.751766,0 -1.177591,-0.157713 -0.420568,-0.16297 -0.609823,-0.420568 -0.189256,-0.257598 -0.23657,-0.567767 -0.04206,-0.310169 -0.04206,-0.609824 V 10.15471 h 2.002955 v 5.898466 q 0,0.194513 0.09989,0.367997 0.09989,0.173485 0.515196,0.231313 l 0.220798,0.02103 v 1.240676 q -0.183998,0.06834 -0.378511,0.115656 -0.194513,0.05257 -0.394282,0.05257 z"
         id="path524" />
      <path
         d="m 104.84481,18.071903 q -1.08296,0 -1.89255,-0.488911 -0.8096,-0.494167 -1.25645,-1.366846 -0.44686,-0.877935 -0.44686,-2.023983 0,-1.182848 0.47314,-2.066041 0.4784,-0.888449 1.31428,-1.37736 0.84113,-0.48891 1.93461,-0.48891 0.76754,0 1.37736,0.231312 0.60983,0.231313 1.04091,0.630852 0.43634,0.394283 0.66765,0.893707 0.23131,0.499425 0.24183,1.030392 h -2.13964 q -0.0684,-0.310169 -0.22606,-0.557253 -0.15246,-0.247083 -0.4048,-0.389025 -0.25234,-0.147199 -0.60982,-0.147199 -0.37325,0 -0.70445,0.205027 -0.32594,0.19977 -0.53097,0.678166 -0.19977,0.473139 -0.19977,1.293247 0,0.699194 0.14194,1.130276 0.1472,0.425825 0.37326,0.65188 0.23131,0.226056 0.49942,0.304912 0.26811,0.07886 0.50994,0.07886 0.21554,0 0.39954,-0.06309 0.184,-0.06309 0.32594,-0.162971 0.14194,-0.105142 0.23657,-0.231312 0.0999,-0.12617 0.14194,-0.257598 l 0.0894,-0.273369 h -1.32479 v -1.37736 l 3.4802,0.02103 v 4.016425 h -1.34056 v -0.841136 q -0.18925,0.194512 -0.45736,0.415311 -0.26286,0.220798 -0.67291,0.378511 -0.41006,0.152456 -1.04091,0.152456 z"
         id="path526" />
      <path
         d="m 109.55516,17.966761 v -5.435842 h 1.97667 v 1.503531 q 0.12617,-0.43634 0.35749,-0.799079 0.23657,-0.367997 0.59931,-0.588796 0.36274,-0.220798 0.86742,-0.220798 0.0368,0 0.0578,0 0.021,0 0.021,0 v 1.934613 q -0.0158,-0.0053 -0.0315,-0.0053 -0.0105,0 -0.0368,-0.0053 -0.57302,-0.05783 -0.92525,0.01051 -0.34697,0.06834 -0.53097,0.226055 -0.18399,0.152456 -0.24708,0.357483 -0.0631,0.19977 -0.0631,0.415311 v 2.607522 z"
         id="path528" />
      <path
         d="m 116.68904,18.071903 q -0.84114,0 -1.46147,-0.357483 -0.61509,-0.357483 -0.9568,-0.983078 -0.33645,-0.630852 -0.33645,-1.445702 0,-0.856908 0.35222,-1.498274 0.35749,-0.646623 0.97783,-1.004106 0.62559,-0.357483 1.43518,-0.357483 0.85165,0 1.46673,0.373254 0.62034,0.367997 0.95154,1.014621 0.33645,0.646623 0.33645,1.471988 0,0.809593 -0.34171,1.440445 -0.33645,0.625595 -0.95679,0.988335 -0.62034,0.357483 -1.46673,0.357483 z m 0.0105,-1.482503 q 0.32594,0 0.48891,-0.220798 0.16823,-0.226055 0.2208,-0.546738 0.0578,-0.320683 0.0578,-0.609824 0,-0.294397 -0.0578,-0.599309 -0.0526,-0.310169 -0.2208,-0.515196 -0.16297,-0.210284 -0.48891,-0.210284 -0.33119,0 -0.49942,0.210284 -0.16297,0.205027 -0.2208,0.515196 -0.0578,0.304912 -0.0578,0.599309 0,0.289141 0.0578,0.609824 0.0578,0.320683 0.2208,0.546738 0.16823,0.220798 0.49942,0.220798 z"
         id="path530" />
      <path
         d="m 122.24579,18.071903 q -0.3312,0 -0.68868,-0.110399 -0.35749,-0.115657 -0.66766,-0.336455 -0.31016,-0.220798 -0.50468,-0.536224 -0.19451,-0.320683 -0.19451,-0.730737 v -3.827169 h 2.05027 v 3.543286 q 0,0.236569 0.17348,0.399539 0.17349,0.157713 0.48366,0.157713 0.31017,0 0.48365,-0.157713 0.17874,-0.16297 0.17874,-0.399539 v -3.543286 h 2.02924 v 5.435842 h -1.51404 l -0.24183,-1.114506 q -0.0999,0.541482 -0.37851,0.804337 -0.27863,0.257598 -0.61508,0.336454 -0.3312,0.07886 -0.59405,0.07886 z"
         id="path532" />
      <path
         d="m 126.6407,19.659547 v -7.128628 h 2.05552 v 0.630852 q 0.15246,-0.210284 0.34697,-0.352226 0.19977,-0.141941 0.41531,-0.226055 0.21554,-0.08411 0.43108,-0.120913 0.21555,-0.0368 0.4048,-0.0368 0.56777,0 1.01988,0.299655 0.45211,0.299655 0.71496,0.925249 0.26286,0.620338 0.26286,1.582388 0,1.035648 -0.31543,1.661243 -0.31017,0.620338 -0.8201,0.898964 -0.50469,0.278627 -1.08297,0.278627 -0.16822,0 -0.35748,-0.04206 -0.184,-0.04206 -0.37325,-0.131428 -0.184,-0.09463 -0.35223,-0.236569 -0.16823,-0.147199 -0.30491,-0.357483 v 2.355181 z m 2.89666,-3.049118 q 0.34171,0 0.59931,-0.320683 0.26285,-0.325941 0.26285,-1.056677 0,-0.662395 -0.26285,-1.014621 -0.2576,-0.352225 -0.59931,-0.352225 -0.44685,0 -0.65188,0.410053 -0.19977,0.404797 -0.19977,0.956793 0,0.331197 0.0894,0.65188 0.0894,0.315426 0.27337,0.520453 0.18925,0.205027 0.48891,0.205027 z"
         id="path534" />
    </g>
    <g
       aria-label="quantum photochemistry"
       id="text7844"
       style="font-weight:900;font-size:7.35991px;line-height:125%;font-family:'Public Sans';-inkscape-font-specification:'Public Sans Heavy';letter-spacing:0px;word-spacing:0px;fill:#ffffff;stroke-width:0.19714px">
      <path
         d="m 46.346042,32.29438 v -1.873097 q -0.05888,0.121438 -0.158238,0.253916 -0.09936,0.132479 -0.246557,0.250237 -0.143519,0.114079 -0.342236,0.183998 -0.195038,0.0736 -0.448955,0.0736 -0.459994,0 -0.82063,-0.209757 -0.360635,-0.213438 -0.570393,-0.662392 -0.206077,-0.448955 -0.206077,-1.155506 0,-0.607193 0.176638,-1.037747 0.180318,-0.430555 0.522553,-0.658712 0.345916,-0.228157 0.84271,-0.228157 0.261277,0 0.463674,0.06992 0.206078,0.06992 0.356956,0.180317 0.154558,0.110399 0.257597,0.239198 0.106719,0.128798 0.172958,0.246557 l 0.0074,-0.662392 h 0.680791 v 4.990019 z m -1.067187,-1.64126 q 0.353275,0 0.592473,-0.198718 0.239197,-0.198717 0.360635,-0.533593 0.121439,-0.334876 0.121439,-0.743351 0,-0.632953 -0.272317,-1.023028 -0.268637,-0.393755 -0.80223,-0.393755 -0.467355,0 -0.769111,0.349596 -0.298076,0.349596 -0.298076,1.067187 0,0.688151 0.272316,1.081907 0.275997,0.393755 0.794871,0.393755 z"
         style="font-weight:normal;-inkscape-font-specification:'Public Sans'"
         id="path537" />
      <path
         d="m 49.554955,31.183033 q -0.298076,-0.0037 -0.563033,-0.08464 -0.261277,-0.08464 -0.463674,-0.246557 -0.202398,-0.161918 -0.320156,-0.401115 -0.114079,-0.242877 -0.114079,-0.563033 v -2.583328 h 0.680792 v 2.513409 q 0,0.371675 0.228157,0.603513 0.231837,0.231837 0.695512,0.231837 0.419514,0 0.673431,-0.217118 0.257597,-0.220797 0.257597,-0.655032 v -2.476609 h 0.677112 v 3.805073 H 50.76566 l -0.06992,-0.728631 q -0.06992,0.287037 -0.239197,0.463674 -0.165598,0.176638 -0.401115,0.261277 -0.231837,0.08096 -0.500474,0.07728 z"
         style="font-weight:normal;-inkscape-font-specification:'Public Sans'"
         id="path539" />
      <path
         d="m 53.496185,31.183033 q -0.371675,0 -0.655032,-0.128798 -0.279677,-0.132479 -0.441595,-0.379036 -0.158238,-0.246557 -0.158238,-0.596152 0,-0.632953 0.441595,-0.942069 0.441595,-0.309116 1.416783,-0.331196 l 0.677111,-0.0184 v -0.298077 q 0,-0.349596 -0.209757,-0.551993 -0.209758,-0.206078 -0.647672,-0.206078 -0.327516,0.0037 -0.577753,0.154559 -0.250237,0.150878 -0.320156,0.493114 h -0.599833 q 0.02208,-0.371676 0.206078,-0.625593 0.187677,-0.257597 0.526233,-0.390075 0.338556,-0.132478 0.79855,-0.132478 0.496794,0 0.82431,0.139838 0.331196,0.139838 0.493114,0.412155 0.165598,0.272316 0.165598,0.669752 v 2.656927 h -0.581433 l -0.05152,-0.713911 q -0.217117,0.445274 -0.559353,0.618232 -0.338556,0.169278 -0.747031,0.169278 z m 0.202397,-0.489434 q 0.195038,0 0.382716,-0.06992 0.191357,-0.06992 0.345916,-0.187678 0.158238,-0.121438 0.253916,-0.268636 0.09568,-0.150879 0.09568,-0.309117 v -0.651352 l -0.563033,0.01104 q -0.437914,0.0074 -0.728631,0.08832 -0.290716,0.08096 -0.437915,0.253917 -0.147198,0.172958 -0.147198,0.452635 0,0.320156 0.224478,0.500473 0.224477,0.180318 0.574072,0.180318 z"
         style="font-weight:normal;-inkscape-font-specification:'Public Sans'"
         id="path541" />
      <path
         d="m 56.499024,31.109434 v -3.805073 h 0.658712 v 0.551993 q 0.092,-0.158238 0.253917,-0.298076 0.165598,-0.139839 0.397435,-0.224478 0.235518,-0.08464 0.540954,-0.08464 0.360635,0 0.662392,0.143519 0.305436,0.143518 0.485754,0.448954 0.183997,0.301756 0.183997,0.780151 v 2.487649 h -0.680791 v -2.42141 q 0,-0.445275 -0.235517,-0.658712 -0.231837,-0.217118 -0.603513,-0.217118 -0.257597,0 -0.482074,0.08464 -0.224477,0.08096 -0.364316,0.250237 -0.139838,0.165598 -0.139838,0.419515 v 2.542849 z"
         style="font-weight:normal;-inkscape-font-specification:'Public Sans'"
         id="path543" />
      <path
         d="m 61.981681,31.127834 q -0.393755,0 -0.610873,-0.106719 -0.217117,-0.106718 -0.305436,-0.316476 -0.08464,-0.209757 -0.08464,-0.515194 v -2.38829 h -0.618232 v -0.496794 h 0.636632 l 0.165598,-1.107667 h 0.500474 v 1.103987 h 0.857429 v 0.500474 h -0.857429 v 2.366211 q 0,0.202397 0.04048,0.298076 0.04416,0.092 0.143519,0.117759 0.09936,0.02576 0.279676,0.02576 h 0.415835 v 0.456315 q -0.06992,0.02576 -0.213437,0.04416 -0.139839,0.0184 -0.349596,0.0184 z"
         style="font-weight:normal;-inkscape-font-specification:'Public Sans'"
         id="path545" />
      <path
         d="m 64.811558,31.183033 q -0.298077,-0.0037 -0.563034,-0.08464 -0.261276,-0.08464 -0.463674,-0.246557 -0.202397,-0.161918 -0.320156,-0.401115 -0.114079,-0.242877 -0.114079,-0.563033 v -2.583328 h 0.680792 v 2.513409 q 0,0.371675 0.228157,0.603513 0.231837,0.231837 0.695512,0.231837 0.419515,0 0.673432,-0.217118 0.257596,-0.220797 0.257596,-0.655032 v -2.476609 h 0.677112 v 3.805073 h -0.540953 l -0.06992,-0.728631 q -0.06992,0.287037 -0.239197,0.463674 -0.165598,0.176638 -0.401116,0.261277 -0.231837,0.08096 -0.500473,0.07728 z"
         style="font-weight:normal;-inkscape-font-specification:'Public Sans'"
         id="path547" />
      <path
         d="m 67.73389,31.109434 v -3.805073 h 0.655032 v 0.551993 q 0.158238,-0.250237 0.434234,-0.437915 0.275997,-0.187677 0.717591,-0.187677 0.206078,0 0.419515,0.06992 0.217118,0.06992 0.397436,0.209757 0.180317,0.139838 0.279676,0.342236 0.176638,-0.279677 0.478394,-0.448955 0.301757,-0.172957 0.680792,-0.172957 0.198717,0 0.415835,0.06256 0.217117,0.05888 0.401115,0.213437 0.187678,0.150878 0.305436,0.423195 0.117759,0.268637 0.117759,0.691832 v 2.487649 h -0.684472 v -2.42141 q 0,-0.345916 -0.110399,-0.533594 -0.110398,-0.191357 -0.290716,-0.268636 -0.176638,-0.07728 -0.379035,-0.07728 -0.176638,0 -0.375356,0.06992 -0.198717,0.06992 -0.338556,0.235517 -0.139838,0.165598 -0.139838,0.452634 v 2.542849 h -0.677112 v -2.620128 q 0,-0.224477 -0.121438,-0.375355 -0.117759,-0.150878 -0.298076,-0.228157 -0.176638,-0.07728 -0.353276,-0.07728 -0.195038,0 -0.393755,0.07728 -0.195038,0.07728 -0.331196,0.246557 -0.132479,0.165598 -0.132479,0.434234 v 2.542849 z"
         style="font-weight:normal;-inkscape-font-specification:'Public Sans'"
         id="path549" />
      <path
         d="m 75.888656,32.29438 v -4.990019 h 0.677111 l 0.0074,0.662392 q 0.06624,-0.117759 0.169278,-0.246557 0.106719,-0.128799 0.257597,-0.239198 0.154558,-0.110398 0.356956,-0.180317 0.206077,-0.06992 0.467354,-0.06992 0.456314,0 0.80223,0.209757 0.349596,0.206077 0.544634,0.632952 0.195037,0.426875 0.195037,1.081907 0,0.655032 -0.191358,1.107666 -0.187677,0.448955 -0.544633,0.684472 -0.356955,0.235517 -0.861109,0.235517 -0.253917,0 -0.452635,-0.0736 -0.195037,-0.06992 -0.342236,-0.183998 -0.143518,-0.117758 -0.242877,-0.250237 -0.09568,-0.132478 -0.158238,-0.253916 v 1.873097 z m 1.751658,-1.64126 q 0.471034,0 0.769111,-0.356956 0.298076,-0.360636 0.298076,-1.118706 0,-0.651352 -0.272316,-1.034068 -0.272317,-0.382715 -0.794871,-0.382715 -0.529913,0 -0.80223,0.393755 -0.272317,0.390075 -0.272317,1.023028 0,0.408475 0.121439,0.743351 0.121438,0.334876 0.360636,0.533593 0.239197,0.198718 0.592472,0.198718 z"
         style="font-weight:normal;-inkscape-font-specification:'Public Sans'"
         id="path551" />
      <path
         d="m 80.271472,31.109434 v -5.468413 h 0.662392 v 2.222693 q 0.09568,-0.158238 0.257597,-0.294397 0.161918,-0.139838 0.393755,-0.224477 0.231837,-0.08832 0.537273,-0.08832 0.371676,0 0.673432,0.139839 0.301756,0.136158 0.478394,0.390075 0.176638,0.253917 0.176638,0.603512 v 2.719487 h -0.680792 v -2.583328 q 0,-0.342236 -0.235517,-0.526234 -0.231837,-0.187678 -0.607192,-0.187678 -0.253917,0 -0.478394,0.08464 -0.224478,0.08096 -0.364316,0.250237 -0.136158,0.165598 -0.136158,0.423195 v 2.539169 z"
         style="font-weight:normal;-inkscape-font-specification:'Public Sans'"
         id="path553" />
      <path
         d="m 86.037962,31.183033 q -0.526234,0 -0.919989,-0.224477 -0.390075,-0.228157 -0.607192,-0.666072 -0.217118,-0.437915 -0.217118,-1.070867 0,-0.596153 0.202398,-1.045107 0.202397,-0.448955 0.592473,-0.695512 0.390075,-0.250236 0.953108,-0.250236 0.526233,0 0.912629,0.231837 0.386395,0.228157 0.599832,0.673431 0.217118,0.445275 0.217118,1.085587 0,0.581433 -0.198718,1.023028 -0.198717,0.441594 -0.585113,0.691831 -0.382715,0.246557 -0.949428,0.246557 z m 0.0037,-0.537273 q 0.338556,0 0.574073,-0.172958 0.235517,-0.172958 0.356956,-0.496794 0.125118,-0.323836 0.125118,-0.769111 0,-0.408475 -0.110399,-0.732311 -0.106718,-0.327516 -0.338556,-0.518873 -0.231837,-0.191358 -0.607192,-0.191358 -0.345916,0 -0.585113,0.172958 -0.239197,0.169278 -0.364315,0.493114 -0.121439,0.323836 -0.121439,0.77647 0,0.401115 0.106719,0.728631 0.110398,0.327516 0.345915,0.518874 0.239198,0.191358 0.618233,0.191358 z"
         style="font-weight:normal;-inkscape-font-specification:'Public Sans'"
         id="path555" />
      <path
         d="m 89.90097,31.127834 q -0.393756,0 -0.610873,-0.106719 -0.217117,-0.106718 -0.305436,-0.316476 -0.08464,-0.209757 -0.08464,-0.515194 v -2.38829 h -0.618233 v -0.496794 h 0.636633 l 0.165598,-1.107667 h 0.500473 v 1.103987 h 0.85743 v 0.500474 h -0.85743 v 2.366211 q 0,0.202397 0.04048,0.298076 0.04416,0.092 0.143518,0.117759 0.09936,0.02576 0.279677,0.02576 h 0.415835 v 0.456315 q -0.06992,0.02576 -0.213438,0.04416 -0.139838,0.0184 -0.349595,0.0184 z"
         style="font-weight:normal;-inkscape-font-specification:'Public Sans'"
         id="path557" />
      <path
         d="m 92.793879,31.183033 q -0.526234,0 -0.919989,-0.224477 -0.390075,-0.228157 -0.607193,-0.666072 -0.217117,-0.437915 -0.217117,-1.070867 0,-0.596153 0.202397,-1.045107 0.202398,-0.448955 0.592473,-0.695512 0.390075,-0.250236 0.953108,-0.250236 0.526234,0 0.912629,0.231837 0.386396,0.228157 0.599833,0.673431 0.217117,0.445275 0.217117,1.085587 0,0.581433 -0.198717,1.023028 -0.198718,0.441594 -0.585113,0.691831 -0.382715,0.246557 -0.949428,0.246557 z m 0.0037,-0.537273 q 0.338556,0 0.574073,-0.172958 0.235518,-0.172958 0.356956,-0.496794 0.125119,-0.323836 0.125119,-0.769111 0,-0.408475 -0.110399,-0.732311 -0.106719,-0.327516 -0.338556,-0.518873 -0.231837,-0.191358 -0.607193,-0.191358 -0.345915,0 -0.585112,0.172958 -0.239197,0.169278 -0.364316,0.493114 -0.121438,0.323836 -0.121438,0.77647 0,0.401115 0.106718,0.728631 0.110399,0.327516 0.345916,0.518874 0.239197,0.191358 0.618232,0.191358 z"
         style="font-weight:normal;-inkscape-font-specification:'Public Sans'"
         id="path559" />
      <path
         d="m 96.963252,31.183033 q -0.515193,0 -0.912628,-0.224477 -0.393756,-0.224477 -0.618233,-0.662392 -0.220797,-0.437915 -0.220797,-1.074547 0,-0.596153 0.202397,-1.041427 0.206078,-0.448955 0.596153,-0.699192 0.393755,-0.250236 0.953108,-0.250236 0.408475,0 0.732312,0.158238 0.327516,0.154558 0.537273,0.441594 0.209757,0.287037 0.257597,0.677112 h -0.603513 q -0.03312,-0.198718 -0.154558,-0.364316 -0.117759,-0.165598 -0.312796,-0.264956 -0.191358,-0.09936 -0.452635,-0.09936 -0.489434,0 -0.79855,0.353276 -0.305436,0.353275 -0.305436,1.081906 0,0.658712 0.279676,1.056147 0.283357,0.393756 0.83167,0.393756 0.261277,0 0.456315,-0.09936 0.195037,-0.103039 0.312796,-0.268637 0.117758,-0.169278 0.150878,-0.360636 h 0.592473 q -0.04784,0.382716 -0.261277,0.662392 -0.209757,0.279677 -0.537273,0.434235 -0.323836,0.150878 -0.724952,0.150878 z"
         style="font-weight:normal;-inkscape-font-specification:'Public Sans'"
         id="path561" />
      <path
         d="m 99.384192,31.109434 v -5.468413 h 0.662388 v 2.222693 q 0.0957,-0.158238 0.2576,-0.294397 0.16192,-0.139838 0.39376,-0.224477 0.23183,-0.08832 0.53727,-0.08832 0.37168,0 0.67343,0.139839 0.30176,0.136158 0.4784,0.390075 0.17663,0.253917 0.17663,0.603512 v 2.719487 h -0.68079 v -2.583328 q 0,-0.342236 -0.23552,-0.526234 -0.23183,-0.187678 -0.60719,-0.187678 -0.25391,0 -0.47839,0.08464 -0.22448,0.08096 -0.36432,0.250237 -0.13616,0.165598 -0.13616,0.423195 v 2.539169 z"
         style="font-weight:normal;-inkscape-font-specification:'Public Sans'"
         id="path563" />
      <path
         d="m 105.23532,31.183033 q -0.52991,0 -0.93471,-0.231837 -0.40479,-0.231837 -0.63295,-0.666072 -0.22816,-0.434234 -0.22816,-1.041427 0,-0.599833 0.20608,-1.052467 0.20608,-0.452635 0.59615,-0.706552 0.39376,-0.253916 0.94575,-0.253916 0.53728,0 0.90895,0.231837 0.37168,0.231837 0.56303,0.655032 0.19504,0.419515 0.19504,0.997268 v 0.250236 h -2.72685 q 0,0.360636 0.11776,0.655032 0.12144,0.290717 0.36432,0.463675 0.24288,0.172958 0.61455,0.172958 0.36432,0 0.62559,-0.169278 0.26496,-0.169278 0.33856,-0.489434 h 0.64031 q -0.0662,0.386395 -0.30911,0.651352 -0.2392,0.264957 -0.57776,0.401115 -0.33487,0.132478 -0.70655,0.132478 z m -1.10399,-2.277892 h 2.06814 q 0,-0.327516 -0.1104,-0.588793 -0.1104,-0.264956 -0.33855,-0.415835 -0.22448,-0.154558 -0.56672,-0.154558 -0.35695,0 -0.59247,0.172958 -0.23552,0.169278 -0.3496,0.437915 -0.11408,0.264957 -0.1104,0.548313 z"
         style="font-weight:normal;-inkscape-font-specification:'Public Sans'"
         id="path565" />
      <path
         d="m 107.79657,31.109434 v -3.805073 h 0.65503 v 0.551993 q 0.15824,-0.250237 0.43423,-0.437915 0.276,-0.187677 0.71759,-0.187677 0.20608,0 0.41952,0.06992 0.21712,0.06992 0.39743,0.209757 0.18032,0.139838 0.27968,0.342236 0.17664,-0.279677 0.47839,-0.448955 0.30176,-0.172957 0.6808,-0.172957 0.19871,0 0.41583,0.06256 0.21712,0.05888 0.40112,0.213437 0.18767,0.150878 0.30543,0.423195 0.11776,0.268637 0.11776,0.691832 v 2.487649 h -0.68447 v -2.42141 q 0,-0.345916 -0.1104,-0.533594 -0.1104,-0.191357 -0.29072,-0.268636 -0.17663,-0.07728 -0.37903,-0.07728 -0.17664,0 -0.37536,0.06992 -0.19871,0.06992 -0.33855,0.235517 -0.13984,0.165598 -0.13984,0.452634 v 2.542849 h -0.67711 v -2.620128 q 0,-0.224477 -0.12144,-0.375355 -0.11776,-0.150878 -0.29808,-0.228157 -0.17664,-0.07728 -0.35327,-0.07728 -0.19504,0 -0.39376,0.07728 -0.19504,0.07728 -0.33119,0.246557 -0.13248,0.165598 -0.13248,0.434234 v 2.542849 z"
         style="font-weight:normal;-inkscape-font-specification:'Public Sans'"
         id="path567" />
      <path
         d="M 114.18129,31.109434 V 27.304361 H 114.84 v 3.805073 z m -0.0184,-4.610983 v -0.706552 h 0.69551 v 0.706552 z"
         style="font-weight:normal;-inkscape-font-specification:'Public Sans'"
         id="path569" />
      <path
         d="m 117.35341,31.183033 q -0.39744,0 -0.73968,-0.121438 -0.33855,-0.125119 -0.56303,-0.386396 -0.22448,-0.264956 -0.27968,-0.673431 h 0.61824 q 0.0478,0.224477 0.18399,0.375355 0.13616,0.147198 0.33488,0.224477 0.2024,0.0736 0.4416,0.0736 0.38639,0 0.62191,-0.143518 0.23551,-0.143518 0.23551,-0.441594 0,-0.209758 -0.12511,-0.334876 -0.12144,-0.128799 -0.38272,-0.187678 l -0.78751,-0.195038 q -0.45999,-0.110398 -0.73599,-0.345915 -0.27232,-0.235518 -0.276,-0.658712 0,-0.334876 0.16192,-0.588793 0.16192,-0.253917 0.48207,-0.401115 0.32384,-0.147198 0.80592,-0.147198 0.62191,0 1.00094,0.279676 0.37904,0.275997 0.39744,0.81327 h -0.60351 q -0.0368,-0.272316 -0.24288,-0.430555 -0.20608,-0.161918 -0.55935,-0.161918 -0.36064,0 -0.59248,0.147199 -0.22815,0.143518 -0.22815,0.448954 0,0.202398 0.16191,0.320156 0.1656,0.114079 0.4784,0.191358 l 0.76543,0.191358 q 0.26127,0.06992 0.43423,0.183997 0.17296,0.114079 0.27232,0.253917 0.0994,0.139838 0.13984,0.294397 0.0442,0.150878 0.0442,0.290716 0,0.349596 -0.17296,0.603513 -0.17296,0.250237 -0.50047,0.390075 -0.32752,0.136158 -0.79119,0.136158 z"
         style="font-weight:normal;-inkscape-font-specification:'Public Sans'"
         id="path571" />
      <path
         d="m 121.01932,31.127834 q -0.39375,0 -0.61087,-0.106719 -0.21712,-0.106718 -0.30543,-0.316476 -0.0846,-0.209757 -0.0846,-0.515194 v -2.38829 h -0.61824 v -0.496794 h 0.63664 l 0.16559,-1.107667 h 0.50048 v 1.103987 h 0.85743 v 0.500474 h -0.85743 v 2.366211 q 0,0.202397 0.0405,0.298076 0.0442,0.092 0.14352,0.117759 0.0994,0.02576 0.27967,0.02576 h 0.41584 v 0.456315 q -0.0699,0.02576 -0.21344,0.04416 -0.13984,0.0184 -0.3496,0.0184 z"
         style="font-weight:normal;-inkscape-font-specification:'Public Sans'"
         id="path573" />
      <path
         d="m 122.48762,31.109434 v -3.805073 h 0.64767 v 0.732311 q 0.0957,-0.272317 0.26864,-0.448955 0.17296,-0.180318 0.39375,-0.268637 0.22448,-0.08832 0.46368,-0.08832 0.0846,0 0.1656,0.01104 0.081,0.01104 0.12512,0.0368 v 0.658712 q -0.0552,-0.02576 -0.14352,-0.03312 -0.0846,-0.01104 -0.14352,-0.01104 -0.22816,-0.01472 -0.42688,0.02944 -0.19871,0.04048 -0.34959,0.143518 -0.15088,0.103039 -0.2392,0.272317 -0.0846,0.165598 -0.0846,0.404795 v 2.366211 z"
         style="font-weight:normal;-inkscape-font-specification:'Public Sans'"
         id="path575" />
      <path
         d="m 125.84212,32.323819 q -0.33488,0 -0.45999,-0.04784 -0.12512,-0.04784 -0.12512,-0.04784 v -0.441594 l 0.39007,0.0074 q 0.20976,0.0074 0.3496,-0.02944 0.13984,-0.0368 0.22447,-0.09936 0.0846,-0.06256 0.1288,-0.139838 0.0478,-0.07728 0.0773,-0.147198 l 0.13248,-0.360636 -1.4867,-3.713074 h 0.68815 l 1.12239,2.936604 1.11502,-2.936604 h 0.66608 l -1.60079,4.09211 q -0.15087,0.360635 -0.33487,0.563033 -0.18032,0.202397 -0.4048,0.283356 -0.22079,0.08096 -0.48207,0.08096 z"
         style="font-weight:normal;-inkscape-font-specification:'Public Sans'"
         id="path577" />
    </g>
  </g>
</svg>
