<?xml version="1.0" encoding="UTF-8" standalone="no"?>
<!-- Created with Inkscape (http://www.inkscape.org/) -->

<svg
   width="500"
   height="159.946"
   viewBox="0 0 132.29167 42.319046"
   version="1.1"
   id="svg5"
   inkscape:version="1.1.2 (0a00cf5339, 2022-02-04)"
   sodipodi:docname="logo_onblack.svg"
   xmlns:inkscape="http://www.inkscape.org/namespaces/inkscape"
   xmlns:sodipodi="http://sodipodi.sourceforge.net/DTD/sodipodi-0.dtd"
   xmlns="http://www.w3.org/2000/svg"
   xmlns:svg="http://www.w3.org/2000/svg">
  <sodipodi:namedview
     id="namedview7"
     pagecolor="#ffffff"
     bordercolor="#666666"
     borderopacity="1.0"
     inkscape:pageshadow="2"
     inkscape:pageopacity="0.0"
     inkscape:pagecheckerboard="0"
     inkscape:document-units="px"
     showgrid="false"
     units="px"
     inkscape:zoom="1.0230034"
     inkscape:cx="183.77261"
     inkscape:cy="158.84601"
     inkscape:window-width="1920"
     inkscape:window-height="994"
     inkscape:window-x="0"
     inkscape:window-y="29"
     inkscape:window-maximized="1"
     inkscape:current-layer="layer1"
     height="159.946px" />
  <defs
     id="defs2" />
  <g
     inkscape:label="Layer 1"
     inkscape:groupmode="layer"
     id="layer1">
    <g
       id="g913"
       transform="matrix(0.74227265,0,0,0.74227265,7.7848326,33.062092)">
      <g
         id="g20818"
         transform="translate(-2068.3729,-143.66302)">
        <g
           id="g13276"
           transform="matrix(0.04500806,0,0,0.04500806,1920.3654,-193.14071)"
           style="fill:#ffffff;fill-opacity:1">
          <path
             style="color:#000000;fill:#ffffff;fill-opacity:1;stroke-width:70;stroke-linecap:round;stroke-linejoin:round;-inkscape-stroke:none"
             d="m 3513.0918,6528.5449 v 0.01 c -112.0928,1e-4 -219.5946,44.5288 -298.8561,123.7904 -79.2616,79.2615 -123.7903,186.7633 -123.7904,298.8561 0.1522,178.5887 112.5387,337.8073 280.7637,397.7597 -37.5164,28.3158 -59.5865,72.5832 -59.6211,119.586 -1e-4,82.8223 67.1406,149.963 149.9629,149.9629 8.5545,-0.029 17.0908,-0.7893 25.5156,-2.2735 -0.2709,-0.2747 -0.5339,-0.5741 -0.8027,-0.8554 20.056,17.1688 43.2138,30.3389 68.2226,38.7988 28.1039,44.2285 76.8498,71.0407 129.252,71.0937 84.6775,-1e-4 153.3221,-68.6447 153.3222,-153.3222 -0.035,-23.048 -5.2654,-45.7915 -15.3027,-66.5391 1.7138,-7.1868 3.0412,-14.4603 3.9766,-21.7891 v 0.041 c 35.2704,-12.9609 66.2714,-35.4195 89.5781,-64.8946 82.4757,-0.5133 149.0692,-67.509 149.0859,-149.9863 0,-82.8542 -67.1673,-150.0206 -150.0215,-150.0195 v 0 c -3.1327,0 -6.2644,0.1077 -9.3906,0.3086 l 15.0938,-53.8926 -0.3242,0.1778 c 10.5175,-37.1447 15.8963,-75.5553 15.9863,-114.1602 -1e-4,-112.0928 -44.5288,-219.5946 -123.7904,-298.8561 -79.2615,-79.2616 -186.7633,-123.7903 -298.8561,-123.7904 z m 312.4648,925.8809 c 0.5609,2.7183 0.9923,5.4012 1.2852,8.043 -0.2929,-2.6418 -0.7243,-5.3247 -1.2852,-8.043 z m 1.6211,11.9746 c -0.1991,4.4069 -0.5391,8.8063 -1.0195,13.1914 0.4804,-4.3851 0.8204,-8.7845 1.0195,-13.1914 z"
             id="path13272" />
          <path
             style="color:#000000;fill:#ffffff;fill-opacity:1;stroke-linecap:round;stroke-linejoin:round;-inkscape-stroke:none"
             d="m 3513.0957,6493.5508 1.1406,0.6191 c -0.6346,0.03 -1.2683,0.077 -1.9004,0.1406 l 0.7559,-0.7558 c -121.3618,1e-4 -237.7898,48.2252 -323.6055,134.041 -85.8158,85.8157 -134.0409,202.2437 -134.041,323.6055 v 0.029 c 0.1496,175.5256 100.661,333.9703 255.4942,410.1757 -22.0149,30.9298 -34.323,68.2656 -34.3516,107.1153 v 0.025 c -1e-4,101.7376 83.2253,184.963 184.9629,184.9629 0.04,1e-4 0.079,1e-4 0.1191,0 5.1944,-0.018 10.3823,-0.263 15.5528,-0.7168 16.8516,12.4343 35.2204,22.6784 54.7128,30.3769 35.2588,48.1725 91.5939,77.0427 151.7676,77.1035 h 0.035 c 103.5927,-1e-4 188.3221,-84.7295 188.3222,-188.3222 v -0.025 -0.027 c -0.034,-22.2835 -4.0815,-44.3173 -11.791,-65.125 27.1769,-13.2887 51.6707,-31.5175 72.0313,-53.9589 93.4824,-9.0997 167.0783,-88.3707 167.0976,-184.0235 v -0.01 c 0,-89.5076 -64.4194,-164.6302 -149.1757,-181.4473 l 3.5605,-12.7168 c 0.1356,-0.7643 0.2457,-1.533 0.3301,-2.3046 10.9143,-39.4214 16.5335,-80.1229 16.6289,-121.0352 0,-0.027 0,-0.055 0,-0.082 -1e-4,-121.3618 -48.2252,-237.7898 -134.041,-323.6055 -85.8157,-85.8158 -202.2437,-134.0409 -323.6055,-134.041 z"
             id="path13274"
             sodipodi:nodetypes="ccccssscssscccssscsccsscccscscc" />
        </g>
        <path
           id="path13278"
           style="fill:#ffd400;fill-opacity:1;stroke:none;stroke-width:0.360065;stroke-linecap:round;stroke-linejoin:round;stroke-miterlimit:4;stroke-dasharray:none;stroke-opacity:1"
           d="m 2078.4829,100.6967 a 19.02251,19.02251 0 0 0 -19.0225,19.0225 19.02251,19.02251 0 0 0 13.4247,18.17983 v 0 l 18.6525,5.74372 5.2634,-18.79369 -0.015,0.008 a 19.02251,19.02251 0 0 0 0.7196,-5.13813 19.02251,19.02251 0 0 0 -19.0225,-19.0225 z" />
        <path
           id="path13280"
           style="fill:#242424;fill-opacity:1;fill-rule:evenodd;stroke:none;stroke-width:0.794968;stroke-miterlimit:4;stroke-dasharray:none;stroke-opacity:1"
           d="m 2086.8995,107.73361 v 0 c -2.944,0.002 -5.7026,1.43751 -7.3923,3.84826 -0.5631,0.0646 -1.1212,0.1671 -1.6705,0.30663 -1.4747,-0.93533 -3.1849,-1.43202 -4.9312,-1.43209 -5.0852,0 -9.2075,4.12241 -9.2075,9.20759 0,3.49971 1.9866,6.69599 5.1232,8.24843 -0.1496,0.658 -0.2252,1.33071 -0.2253,2.0055 0,1.19469 0.2399,2.37721 0.7007,3.47941 -1.1043,0.0917 -2.1503,0.37261 -3.1094,0.80681 1.7469,1.48652 3.7371,2.65417 5.8963,3.42835 -1.6871,1.27456 -2.6683,3.25674 -2.6698,5.37116 -1e-4,3.72768 3.0218,6.74955 6.7495,6.74955 0.385,-0.002 0.7692,-0.0355 1.1484,-0.10234 -0.012,-0.0124 0.012,0.0133 0,0 0.9027,0.77274 1.9086,1.32648 3.0342,1.70723 1.2649,1.99064 3.4589,3.19741 5.8174,3.19979 3.8112,0 6.9007,-3.08956 6.9008,-6.90074 0,-1.03734 -0.237,-2.06097 -0.6888,-2.99478 0.075,-0.33862 0.1413,-0.69048 0.1788,-0.97885 1.5875,-0.58334 2.9828,-1.59416 4.0317,-2.92077 3.7121,-0.0231 6.7094,-3.03846 6.7101,-6.7506 0,-3.7291 -3.0231,-6.75213 -6.7522,-6.75208 v 0 c -0.141,0 -0.2819,0.005 -0.4226,0.0139 l 0.6793,-2.4256 -0.015,0.008 c 0.3541,-1.30475 0.5681,-2.64354 0.6384,-3.99368 -0.5209,0.065 -1.0363,0.17215 -1.5405,0.32324 -0.271,-0.1869 -0.5492,-0.36327 -0.8337,-0.52877 0.5804,-1.21509 0.8819,-2.54461 0.8823,-3.89125 0,-4.98876 -4.0442,-9.03292 -9.0329,-9.033 z"
           sodipodi:nodetypes="ccccccccccccccccccccccccccccccccc" />
        <path
           id="path13282"
           style="fill:#ffffff;fill-opacity:1;fill-rule:evenodd;stroke:none;stroke-width:0.568699;stroke-miterlimit:4;stroke-dasharray:none;stroke-opacity:1"
           d="m 2088.1975,117.92074 c -1.7223,0.005 -3.3713,0.69748 -4.5809,1.92347 -0.042,-0.002 -0.084,-0.002 -0.1267,-0.002 v 0 0 c -0.128,0 -0.2535,0.004 -0.3767,0.0119 l -0.011,0.002 -0.011,0.002 c -0.8306,0.0761 -1.6292,0.25512 -2.3844,0.5227 -0.7975,-0.33405 -1.6528,-0.50783 -2.5174,-0.51144 -3.6378,0 -6.5868,2.94902 -6.5868,6.58682 0.01,2.14016 1.0507,4.14413 2.8024,5.37372 0.1596,0.69542 0.3985,1.36914 0.7037,2.01297 0.015,0.77501 0.1743,1.53855 0.4591,2.2584 -0.055,0.0668 -0.11,0.13437 -0.1638,0.20253 -1.195,0.13706 -2.3486,0.5963 -3.3151,1.32767 0.2606,0.0982 0.5345,0.1814 0.6666,0.22477 l 1.4188,0.4383 c 0,0 0,0 0,0.002 l 1.5212,0.46846 c 0.4081,-0.8214 0.947,-1.5701 1.5923,-2.21868 l 0.4157,-0.36655 c 0.8379,-0.73873 1.8127,-1.3053 2.8692,-1.66785 l 0.4552,-0.15622 v 0 c 0.042,-0.0117 0.082,-0.0255 0.1246,-0.0366 0.1451,-0.0243 0.294,-0.0407 0.4505,-0.0435 v 0 0 c 0.8509,-0.0158 1.9413,0.30541 3.0845,0.85918 0.2736,0.13252 0.5502,0.27837 0.8272,0.43611 0.012,0.006 0.023,0.0131 0.034,0.0197 0.2762,0.15819 0.5527,0.32813 0.8271,0.50844 0.012,0.008 0.024,0.016 0.036,0.0239 0.2747,0.18154 0.5471,0.37332 0.8147,0.57412 0.01,0.008 0.02,0.0155 0.031,0.0231 0.2673,0.20147 0.5296,0.4118 0.7844,0.62959 0.01,0.005 0.012,0.01 0.017,0.0145 0.01,0.005 0.012,0.0105 0.018,0.0156 0.2377,0.20426 0.4682,0.41501 0.6905,0.63037 0.012,0.0114 0.023,0.0228 0.035,0.0342 0.2204,0.21485 0.4324,0.43409 0.6348,0.6557 0.012,0.0129 0.024,0.0257 0.035,0.0386 0.2001,0.22046 0.3904,0.44311 0.5701,0.66608 0.012,0.0146 0.024,0.0293 0.035,0.044 0.1761,0.22032 0.3412,0.44066 0.4947,0.65937 0.013,0.0181 0.025,0.0362 0.038,0.0542 0.1502,0.21633 0.2884,0.43063 0.4139,0.64136 0.011,0.0182 0.022,0.0364 0.032,0.0545 0.1229,0.20949 0.2324,0.41496 0.3282,0.61489 0.2135,0.44596 0.3578,0.864 0.4175,1.23307 v -0.002 c 1e-4,0 0,0 0,0 l 0.7156,-2.5549 c 0,0 0,0 0,0 v -0.0162 c -0.7911,-1.40247 -2.0354,-2.76339 -3.4388,-3.966 -2.3069,-1.97672 -5.0703,-3.5126 -7.5104,-3.46728 v 0 0 c 0,3e-5 0,0 0,0 -0.065,0.002 -0.1291,0.007 -0.1935,0.0112 0.9375,-3.18369 3.6586,-5.52953 6.955,-5.94933 0.012,-0.002 0.024,-0.003 0.037,-0.005 0.1015,-0.0124 0.2035,-0.023 0.3061,-0.0318 0.016,-0.002 0.032,-0.003 0.049,-0.004 0.101,-0.008 0.2025,-0.0146 0.3045,-0.019 0.015,0 0.031,-0.002 0.046,-0.002 0.1064,-0.004 0.2132,-0.007 0.3205,-0.007 h 0.011 c 0.1614,0 0.3222,0.006 0.4824,0.0158 0.018,0.002 0.037,0.002 0.055,0.003 1.2108,0.0825 2.3836,0.43752 3.4485,1.01646 -0.066,0.14806 -0.1437,0.29107 -0.1906,0.44692 -0.1544,0.51188 -0.2322,1.104 -0.2685,1.77113 -0.073,1.3343 0.035,2.96199 0.2671,4.5757 0.096,0.66317 0.213,1.32079 0.3487,1.95443 l 0.4825,-1.72305 0.5522,-1.97165 1.3191,-4.71037 0.1406,-0.50205 0.082,-0.29447 c -0.1468,0.0107 -0.2931,0.0261 -0.4388,0.0463 l -0.5994,-0.41738 c -0.2464,-0.17156 -0.5004,-0.32988 -0.7597,-0.47769 0.2212,-0.65854 0.3347,-1.34842 0.3362,-2.04311 1e-4,-3.56889 -2.8931,-6.46207 -6.462,-6.46209 z m -4.712,3.49629 v 0 0 c 1.3066,0.004 2.916,0.62697 4.3773,1.62301 0.8815,0.60081 1.6908,1.33828 2.3798,2.11476 -0.2827,-0.0243 -0.5668,-0.0379 -0.8521,-0.0379 -0.2621,0.002 -0.5278,-0.002 -0.7878,0.002 -2.389,0.19008 -4.5561,1.26408 -6.1805,2.8733 -1.4032,1.3648 -2.4078,3.14532 -2.8047,5.17162 -0.8307,0.32769 -1.6024,0.75949 -2.3017,1.27826 -1.0076,-1.39723 -1.5854,-3.06277 -1.5878,-4.79846 v -0.002 c 0,-4.27104 3.2453,-7.82339 7.4977,-8.21609 0.087,-0.005 0.1732,-0.008 0.2594,-0.008 z m 4.2971,20.33705 c -0.05,0 -0.099,-2e-5 -0.1493,0 -0.519,0.009 -1.0487,0.0783 -1.5762,0.2005 l 5.4799,1.68745 0.062,-0.2209 c -0.9833,-1.15747 -2.3519,-1.6587 -3.8163,-1.66777 z"
           sodipodi:nodetypes="ccscsccccccccccccccccsscccscssssssssssssssssssssssccccccsccsccssscsssssccssscccccccscccccssccccccsscccccccc" />
      </g>
      <text
         xml:space="preserve"
         style="font-style:normal;font-variant:normal;font-weight:900;font-stretch:normal;font-size:14.1111px;line-height:125%;font-family:'Public Sans';-inkscape-font-specification:'Public Sans Heavy';text-align:start;letter-spacing:0px;word-spacing:0px;text-anchor:start;fill:#ffffff;fill-opacity:1;stroke:none;stroke-width:0.264583px;stroke-linecap:butt;stroke-linejoin:miter;stroke-opacity:1"
         x="48.181301"
         y="-19.754168"
         id="text13288"
         inkscape:export-filename="/home/rymac/Documents/Projects/ResearchGroup/group_logo/group_logo_mol_pallette.png"
         inkscape:export-xdpi="96"
         inkscape:export-ydpi="96"><tspan
           sodipodi:role="line"
           id="tspan13286"
           x="48.181301"
           y="-19.754168"
           style="fill:#ffffff;fill-opacity:1;stroke-width:0.264583px">MacDonell Group</tspan></text>
      <text
         id="text13292"
         y="-2.1153209"
         x="48.181301"
         style="font-style:normal;font-variant:normal;font-weight:900;font-stretch:normal;font-size:9.87777px;line-height:125%;font-family:'Public Sans';-inkscape-font-specification:'Public Sans Heavy';text-align:start;letter-spacing:0px;word-spacing:0px;text-anchor:start;fill:#ffffff;fill-opacity:1;stroke:none;stroke-width:0.264583px;stroke-linecap:butt;stroke-linejoin:miter;stroke-opacity:1"
         xml:space="preserve"
         inkscape:export-filename="/home/rymac/Documents/Projects/ResearchGroup/group_logo/group_logo_mol_pallette.png"
         inkscape:export-xdpi="96"
         inkscape:export-ydpi="96"><tspan
           y="-2.1153209"
           x="48.181301"
           id="tspan13290"
           sodipodi:role="line"
           style="font-style:normal;font-variant:normal;font-weight:normal;font-stretch:normal;font-size:9.87777px;font-family:'Public Sans';-inkscape-font-specification:'Public Sans';fill:#ffffff;fill-opacity:1;stroke-width:0.264583px">quantum photochemistry</tspan></text>
    </g>
  </g>
</svg>
